<?xml version="1.0" standalone="no"?>
<!DOCTYPE svg PUBLIC "-//W3C//DTD SVG 1.1//EN" "http://www.w3.org/Graphics/SVG/1.1/DTD/svg11.dtd" >
<!--
2013-9-30: Created.
-->
<svg>
<metadata>
Created by iconfont
</metadata>
<defs>

<font id="iconfont" horiz-adv-x="1024" >
  <font-face
    font-family="iconfont"
    font-weight="500"
    font-stretch="normal"
    units-per-em="1024"
    ascent="896"
    descent="-128"
  />
    <missing-glyph />
    
    <glyph glyph-name="xinwen" unicode="&#58925;" d="M400.1255 124.8148l313.3767 0 0-24.3485-313.3767 0 0 24.3485ZM400.1255 355.5983l128.0406 0 0-21.5394-128.0406 0 0 21.5394ZM400.1255 179.8595l313.3767 0 0-26.4741-313.3767 0 0 26.4741ZM400.1255 406.4069l128.0406 0 0-22.2249-128.0406 0 0 22.2249ZM400.1255 462.5128l128.0406 0 0-27.5223-128.0406 0 0 27.5223ZM400.1255 230.68l313.3767 0 0-22.2379-313.3767 0 0 22.2379ZM505.9962 785.5468c-250.3338 0-453.2547-202.9264-453.2547-453.2357s202.9219-453.2357 453.2547-453.2357c250.3208 0 453.2547 202.9264 453.2547 453.2357S756.317 785.5468 505.9962 785.5468zM300.6078 153.3844h-48.69902741856179V562.0323420720752v48.698982090142884h48.69902741856179 359.9590660340024v-48.698982090142884H300.6078134306581V153.38440537315705zM760.0776 462.5128v-362.0465324509982-46.587413733488695h-46.57537805955412H400.1255201691724h-46.58137424597955v46.587413733488695V462.51281631054144v46.587413733488695h46.58137424597955 313.3766924236186 46.57537805955412V462.51281631054144zM556.7509 462.5128l156.7523 0 0-152.4396-156.7523 0 0 152.4396ZM400.1255 281.4886l313.3767 0 0-22.2379-313.3767 0 0 22.2379Z"  horiz-adv-x="1000" />

    
    <glyph glyph-name="cuo" unicode="&#58946;" d="M512.8339264 796.92233387c-226.24399573 0-409.65102933-183.4070336-409.65102933-409.65102934S286.58993067-22.379723730000023 512.8339264-22.379723730000023 922.48495573 161.02730986999995 922.48495573 387.2713056 739.07792213 796.92233387 512.8339264 796.92233387zM512.8339264 21.82492160000004c-201.83091093 0-365.446384 163.61547307-365.446384 365.446384s163.61547307 365.446384 365.446384 365.446384 365.446384-163.61547307 365.446384-365.446384S714.66483733 21.82492160000004 512.8339264 21.82492160000004zM551.411615 387.066849l96.573499 96.574522c10.667967 10.665921 10.667967 27.960819 0 38.628786-10.666944 10.665921-27.961842 10.665921-38.628786 0l-96.573499-96.573499-96.573499 96.573499c-10.667967 10.665921-27.962865 10.665921-38.629809 0-10.666944-10.667967-10.666944-27.962865 0-38.628786l96.573499-96.574522-96.573499-96.574522c-10.666944-10.665921-10.666944-27.960819 0-38.628786 10.666944-10.665921 27.961842-10.665921 38.629809 0l96.573499 96.573499 96.573499-96.573499c10.666944-10.665921 27.961842-10.665921 38.628786 0 10.667967 10.667967 10.667967 27.962865 0 38.628786L551.411615 387.066849z"  horiz-adv-x="1024" />

    
    <glyph glyph-name="shouhuodizhi" unicode="&#58908;" d="M526.545786 413.720018c0 0-35.072797 7.856945-61.157895-22.946618 0 0-23.450085-25.713638-11.562337-62.153572 0 0 8.268314-29.958312 41.113373-41.298592 0 0 9.31311-3.745301 22.881127-3.416819 0 0 38.997176-0.788969 57.645908 38.568411 0 0 12.615319 24.580838 0.333598 52.79339C575.800583 375.267241 563.667242 407.48092 526.545786 413.720018zM922.315598 477.24482c0 0-83.000366 220.352617-336.931752 263.036765 0 0-239.914138 53.743018-418.34497-156.969031 0 0-160.408363-175.893033-79.091336-425.146886 0 0 56.559157-204.937532 281.236266-282.500049 0 0 63.700811-25.622564 156.520823-23.370267 0 0 266.748297-5.403057 394.324904 263.818571C920.028509 116.113923 1006.331084 284.261551 922.315598 477.24482zM701.418582 267.46091C690.270684 242.934307 556.486702 15.506551 556.486702 15.506551c-40.664142-59.0857-80.267115 0-80.267115 0-37.904285 60.201104-138.241504 234.117109-138.241504 234.117109-69.119217 124.862799 15.607466 231.888348 15.607466 231.888348 124.863822 147.159618 275.366581 44.593638 275.366581 44.593638C777.226129 419.082142 701.418582 267.46091 701.418582 267.46091z"  horiz-adv-x="1024" />

    
    <glyph glyph-name="yingyong1" unicode="&#58999;" d="M511.253498-146.443935c-60.290131 0-118.786407 11.811-173.86177 35.106566-53.18941 22.496363-100.954273 54.700833-141.968385 95.714945-41.015136 41.015136-73.217558 88.779999-95.714945 141.968385C76.413855 181.421324 64.601832 239.916577 64.601832 300.207731c0 60.291155 11.811 118.786407 35.106566 173.86177 22.497387 53.18941 54.700833 100.954273 95.714945 141.968385s88.779999 73.217558 141.968385 95.714945c55.075363 23.294542 113.570615 35.106566 173.86177 35.106566 60.291155 0 118.786407-11.811 173.86177-35.106566 53.18941-22.497387 100.954273-54.700833 141.969409-95.714945 41.014112-41.015136 73.217558-88.779999 95.714945-141.968385 23.295566-55.075363 35.106566-113.570615 35.106566-173.86177 0-60.290131-11.811-118.786407-35.106566-173.86177-22.497387-53.18941-54.700833-100.95325-95.714945-141.968385-41.015136-41.014112-88.781022-73.218582-141.969409-95.714945C630.039905-134.632935 571.544653-146.443935 511.253498-146.443935zM511.253498 716.160211c-229.356688 0-415.95248-186.595792-415.95248-415.95248 0-229.356688 186.595792-415.95248 415.95248-415.95248 229.357711 0 415.953504 186.595792 415.953504 415.95248C927.208025 529.564419 740.61121 716.160211 511.253498 716.160211zM417.981185 557.869069 321.291029 557.869069c-35.602869 0-64.460104-28.865421-64.460104-64.466244l0-96.690156c0-35.601846 28.857235-64.460104 64.460104-64.460104l96.690156 0c35.600823 0 64.466244 28.858258 64.466244 64.460104l0 96.690156C482.447429 529.003648 453.582007 557.869069 417.981185 557.869069zM708.057793 557.869069l-96.688109 0c-35.603893 0-64.460104-28.865421-64.460104-64.466244l0-96.690156c0-35.601846 28.856211-64.460104 64.460104-64.460104l96.688109 0c35.601846 0 64.459081 28.858258 64.459081 64.460104l0 96.690156C772.516874 529.003648 743.659639 557.869069 708.057793 557.869069zM417.981185 267.791437 321.291029 267.791437c-35.602869 0-64.460104-28.856211-64.460104-64.459081l0-96.696296c0-35.594683 28.857235-64.460104 64.460104-64.460104l96.690156 0c35.600823 0 64.466244 28.865421 64.466244 64.460104l0 96.696296C482.447429 238.934203 453.582007 267.791437 417.981185 267.791437zM708.057793 267.791437l-96.688109 0c-35.603893 0-64.460104-28.856211-64.460104-64.459081l0-96.696296c0-35.594683 28.856211-64.460104 64.460104-64.460104l96.688109 0c35.601846 0 64.459081 28.865421 64.459081 64.460104l0 96.696296C772.516874 238.934203 743.659639 267.791437 708.057793 267.791437z"  horiz-adv-x="1024" />

    
    <glyph glyph-name="weibo1" unicode="&#59040;" d="M726.064 300.547c-34.992 6.772-18.007 25.586-18.007 25.586s34.24 56.44-6.773 97.453c-50.797 50.796-174.263-6.478-174.263-6.478-47.141-14.648-34.671 6.692-28.006 42.948 0 42.732-14.621 115.056-140.239 72.323-125.511-42.947-233.229-193.4-233.229-193.4-74.931-100.005-65.040-177.274-65.040-177.274 18.733-170.609 200.011-217.454 341.002-228.553 148.356-11.61 348.528 51.145 409.268 180.096 60.685 129.167-49.613 180.285-84.713 187.3zM412.475-18.741c-147.227-6.88-266.287 66.975-266.287 165.235 0 98.392 119.060 177.273 266.287 184.072 147.388 6.801 266.664-53.939 266.664-152.091 0-98.26-119.277-190.498-266.664-197.217zM383.125 265.769c-148.141-17.336-130.993-156.070-130.993-156.070s-1.532-43.941 39.696-66.302c86.676-46.926 175.902-18.519 221.001 39.695 45.099 58.24 18.599 199.877-129.704 182.677zM345.769 71.051c-27.682-3.251-49.935 12.714-49.935 35.827 0 23.059 19.782 47.168 47.464 50.043 31.766 3.038 52.408-15.265 52.408-38.405-0.001-23.035-22.414-44.319-49.936-47.465zM433.062 145.418c-9.353-6.988-20.91-6.019-25.856 2.366-5.16 8.198-3.224 21.34 6.263 28.22 10.992 8.17 22.388 5.805 27.334-2.366 4.945-8.385 1.397-20.99-7.74-28.22zM798.172 360.587c11.934 0 22.066 8.842 23.785 20.373 0.216 0.86 0.322 1.613 0.322 2.58 18.089 162.626-133.25 134.649-133.25 134.649-13.439 0-24.242-10.885-24.242-24.457 0-13.331 10.804-24.189 24.242-24.189 108.686 23.973 84.713-84.713 84.713-84.713 0-13.465 10.965-24.242 24.429-24.242zM780.514 644.7c-52.3 12.254-106.134 1.582-121.21-1.32-1.183-0.107-2.258-1.238-3.333-1.452-0.538-0.107-0.861-0.673-0.861-0.673-14.836-4.219-25.721-17.993-25.721-34.253 0-19.378 15.722-35.322 35.288-35.322 0 0 19.082 2.55 31.983 7.602 12.792 5.16 121.21 3.841 175.015-86.57 29.402-65.981 12.928-110.138 10.858-117.233 0 0-6.988-17.147-6.988-34.025 0-19.486 15.75-31.494 35.208-31.494 16.259 0 29.94 2.317 33.917 29.946h0.215c57.785 192.381-70.737 282.944-164.373 304.795z"  horiz-adv-x="1024" />

    
    <glyph glyph-name="wode" unicode="&#58959;" d="M690.794617 472.279738c0-98.762351-80.052221-178.729637-178.867784-178.729637-98.709139 0-178.76136 79.967286-178.76136 178.729637 0 98.857519 80.052221 178.992627 178.76136 178.992627C610.741373 651.272365 690.794617 571.137257 690.794617 472.279738zM838.859861 86.921044c0-95.757924-146.441257-138.193409-326.933027-138.193409-180.447768 0-326.787718 42.435485-326.787718 138.193409 0 95.937003 146.33995 173.628456 326.787718 173.628456C692.417581 260.549499 838.859861 182.858046 838.859861 86.921044z"  horiz-adv-x="1024" />

    
    <glyph glyph-name="zichan" unicode="&#59710;" d="M262.887 353.995c-27.502 0-49.822-22.688-49.822-50.711s22.321-50.711 49.822-50.711 49.793 22.688 49.793 50.711-22.321 50.711-49.793 50.711zM910.092 568.033c0.398 18.734-4.569 62.485-60.554 77.724l-562.123 114.607c-41.177 0-74.688-34.124-74.688-76.067l0-102.006-24.896 0.031c-41.055-0.185-74.412-34.186-74.412-76.036l0-405.664c0-41.973 33.511-76.098 74.719-76.098l647.756 0c41.206 0 74.719 34.124 74.719 76.067l-0.522 467.444zM262.518 684.297c0 13.245 10.026 24.13 22.75 25.264l549.338-113.228c0.215-0.123-4.109-14.227-24.037-13.95l-548.049 0 0 101.915zM860.789 100.589c0-13.981-11.161-25.356-24.927-25.356l-647.726 0c-13.735 0-24.927 11.374-24.927 25.356l0 405.695c0 13.981 11.161 25.356 24.927 25.356l622.554 0c24.467 0 50.129 8.462 50.129 25.264l0-456.315z"  horiz-adv-x="1024" />

    
    <glyph glyph-name="kefu" unicode="&#59008;" d="M509.963577 794.805549c-273.034156 0-494.376591-221.342435-494.376591-494.376591 0-273.025125 221.333404-494.36756 494.376591-494.36756 273.025125 0 494.36756 221.342435 494.36756 494.36756C1004.331137 573.472145 782.988703 794.805549 509.963577 794.805549zM350.490462 394.167615c22.86573 64.397915 85.204646 110.644125 158.777751 110.644125 73.582136 0 135.948144-46.24621 158.786782-110.644125 16.228166-8.9133 27.218527-25.909076 27.218527-45.424416 0-28.717623-23.822984-52.007796-53.145664-52.007796L642.127858 400.787117c1.453943 0 2.880793-0.081276 4.316674-0.180614-23.552063 51.195033-76.08364 86.857264-137.167288 86.857264s-113.588133-35.6532-137.158258-86.857264c1.408789 0.12643 2.862732 0.180614 4.316674 0.180614l0-104.042684c-29.349772 0-53.136633 23.290173-53.136633 52.034888C323.289997 368.258539 334.271327 385.281407 350.490462 394.167615zM624.31932 340.010512c0-62.239578-51.502077-112.694094-115.051106-112.694094-63.539999 0-115.033045 50.454516-115.033045 112.694094s51.502077 112.685063 115.033045 112.685063C572.817243 452.695575 624.283197 402.25009 624.31932 340.010512zM305.580796 96.055207c0 65.526753 35.310033 113.795839 89.060754 140.869875 30.045136-27.399141 70.331084-44.169149 114.626663-44.169149 44.385886 0 84.716988 16.824192 114.789216 44.322671 54.337716-27.055974 90.279899-75.370215 90.279899-141.023397L305.580796 96.055207z"  horiz-adv-x="1024" />

    
    <glyph glyph-name="iconfont203" unicode="&#59015;" d="M511.999989 812c-282.663374 0-511.909692-229.201164-511.909692-512s229.110856-512 511.909692-512c282.753682 0 511.909692 229.201164 511.909692 512S794.663363 812 511.999989 812L511.999989 812zM712.97997 347.411588 712.97997 246.673252l-139.435224 0 0-43.347738 139.344916 0-2.302849-94.868331-137.042067 0 0-108.956345-110.085193 0 0 108.911191-139.435224 0 0 94.868331 139.344916 0 0 42.173737L325.243485 245.454096l0 104.350648 84.257166 0-129.99806 250.694417 125.347209 0 107.15019-223.647235 108.369345 223.647235 124.173208 0-132.391216-253.087574L712.97997 347.411588 712.97997 347.411588z"  horiz-adv-x="1024" />

    
    <glyph glyph-name="haoping" unicode="&#58937;" d="M512.28107422 833.43785156c-248.37076846 0-449.71892578-201.34141172-449.71892578-449.71892578 0-248.36964434 201.34815732-449.71892578 449.71892578-449.71892578 248.36964434 0 449.71892578 201.34928144 449.71892578 449.71892578C962 632.09643984 760.65071856 833.43785156 512.28107422 833.43785156zM743.40512158 299.27970058999995c-7.28994375-4.31955-10.9798875-12.89793867-9.95452822-21.46171114 0.92192344-7.68569678 0.4395999-16.24946924-0.65883779-25.12129922-2.62073672-21.5201751-8.59412901-32.70468427-18.28557159-38.44197333-7.5676456-4.47920068-11.82873164-13.11717656-10.27720195-21.91480313 0.79038105-4.42186172 0.73191797-8.90106153-0.35078115-13.19025586-5.79687714-22.74903193-16.68906914-34.89931318-42.36577119-33.87507803-0.02923154 0-97.43947558-3.21998731-163.85059336 11.44871983-54.29681455 11.97376612-89.59300401 42.3803874-109.04109961 42.3803874L259.48169932 199.10368536 259.48169932 457.75053076c25.92629648 0 53.3535293 1.44921885 81.81848847 3.76189893 18.54078662 1.50768281 35.91792598 9.86008711 48.89569043 23.48881963L575.02473417 678.9931292c0 0 98.68294776-43.62498457-28.01973779-151.59013154l-23.32017509-34.38775723c-3.29419072-4.83897568 0.5126792-11.39700146 6.25221738-10.75952549 8.51992471 0.95115586 17.06908184 1.87420342 25.58900654 2.75902559 82.97651425 8.60762021 126.30805752-1.25134278 126.30805752-1.25134277 26.58513427-3.57976231 51.9402876-23.79575302 51.9402876-53.15452823 0-4.6264834-0.57114317-9.12817002-1.66845762-13.40949375-1.61111778-6.32417256 1.81461622-12.75065596 7.67108057-15.35677734 17.59525312-7.86108692 25.29668935-28.26933135 25.29668935-52.21798857C765.0725794 327.38713299999995 758.4403502 308.20999365 743.40512158 299.27970058999995z"  horiz-adv-x="1024" />

    
    <glyph glyph-name="htmal5icon27" unicode="&#60933;" d="M469.13298432 261.75251229l86.93208974 0 0-86.93208975-86.93208974 0L469.13298432 261.75251229zM469.13298432 609.48203747l86.93208974 0 0-260.7974343-86.93208974 0L469.13298432 609.48203747zM512.59844722-42.51038492999999c239.06470343 0 434.66161493 195.59807545 434.66161493 434.66161494s-195.59807545 434.66161493-434.66161493 434.66161493-434.66161493-195.59807545-434.66161493-434.66161493S273.53490887-42.51038492999999 512.59844722-42.51038492999999z"  horiz-adv-x="1024" />

    
    <glyph glyph-name="kaiguananniu" unicode="&#58944;" d="M796.736 585.408c-35.008 35.776-77.504 65.088-122.816 84.672l-0.512 0.192c-7.808 4.224-16.448 6.464-25.28 6.464-1.856 0-3.84-0.064-5.632-0.32C639.744 676.096 636.864 675.584 634.048 674.816c-13.312-3.648-24.96-12.608-31.936-24.512-1.28-2.304-2.496-4.736-3.456-7.424-2.56-6.272-3.84-12.864-3.84-19.584 0-4.416 0.512-8.832 1.6-13.184 3.456-15.68 12.992-27.968 26.112-33.6l0.512-0.192c2.304-1.28 4.736-2.368 7.168-3.2 14.464-6.656 28.608-14.4 41.984-22.976 5.568-3.584 11.456-7.616 17.728-12.288l0.064 0c1.024-0.96 2.112-1.92 3.456-2.88 1.728-1.472 3.84-3.008 4.544-3.712 3.52-2.944 7.232-6.208 11.712-10.368 6.144-5.632 12.352-11.84 19.008-18.944 2.624-2.816 5.312-5.952 8.896-10.048 1.408-1.728 2.816-3.456 4.288-5.184 0.64-0.768 1.792-2.304 2.816-3.584 10.048-13.44 19.392-28.288 27.776-44.032 3.2-5.952 6.272-12.288 9.408-19.52l0.064 0c0.448-1.408 1.152-2.88 1.728-4.544 0.896-2.112 1.728-4.352 2.112-5.312 1.664-4.352 3.328-9.216 5.248-15.104 2.56-8.128 4.928-16.768 7.168-26.624 1.152-4.864 2.112-9.856 2.88-13.632 0.384-2.24 0.768-4.544 1.152-6.848 0.128-0.96 0.448-2.752 0.64-4.416 2.048-17.344 2.688-35.776 1.92-54.464-0.256-6.4-0.768-12.992-1.6-20.352-0.064-0.704-0.256-1.792-0.448-3.2-0.32-2.432-0.768-5.632-1.024-6.976-0.704-4.224-1.664-8.96-2.88-14.784-3.648-16.64-8.832-33.792-15.552-51.008l-0.832-1.92c-0.256-0.64-0.512-1.28-0.768-1.856-1.472-3.328-3.2-6.976-5.376-11.392-3.776-7.616-8-15.488-13.056-23.936-3.968-6.656-8.512-13.504-13.76-20.992-1.344-1.984-2.752-3.968-4.096-5.824l0 0c-0.96-1.088-1.856-2.304-3.008-3.584-1.664-2.176-3.456-4.48-4.16-5.376-10.752-12.736-23.04-25.088-36.608-37.056-3.456-2.944-6.912-5.824-9.536-7.872l-0.64-0.512-2.624-2.048c-6.72-4.928-14.144-9.92-22.528-15.104-6.528-4.032-13.696-8.192-21.952-12.352-3.2-1.6-6.656-3.456-11.328-5.568-1.792-0.96-3.84-1.792-5.76-2.688l-1.152-0.512c-15.232-6.272-31.936-11.52-49.344-15.68-7.744-1.728-16-3.456-25.28-4.8-1.472-0.128-3.008-0.384-4.48-0.512-4.416-0.576-9.344-0.96-15.424-1.344-6.4-0.384-12.992-0.64-19.648-0.64-11.648 0-23.744 0.64-35.904 1.92-1.344 0.128-2.688 0.256-4.032 0.512L471.808 13.184c-3.648 0.512-7.68 1.28-12.672 2.112-8.448 1.664-17.344 3.712-27.136 6.528-7.68 2.048-15.616 4.608-24.32 7.808-2.944 1.152-6.144 2.24-10.24 3.968-2.432 1.152-4.8 2.24-7.232 3.328-15.04 7.104-30.4 15.744-45.44 25.92-2.944 2.048-6.08 4.16-10.24 7.232C333.952 70.4 333.376 70.72 332.8 71.168L332.224 71.68l-0.96 0.768c-6.528 5.184-13.248 11.072-20.416 17.792-5.568 5.248-11.264 11.072-17.472 17.792-2.432 2.688-4.992 5.504-8.192 9.344-0.832 1.024-2.752 3.456-4.48 5.632-1.152 1.344-2.176 2.752-2.752 3.456-8.96 12.032-17.344 25.344-25.088 39.424-3.712 6.848-7.36 14.272-11.136 22.656l-0.576 1.28-1.088 2.56c-1.536 3.968-3.2 8.384-5.12 13.888-5.632 16.128-10.112 33.536-13.312 51.968C221.312 259.584 220.8 263.104 220.416 265.792L220.288 266.944C219.968 269.76 219.712 272.576 219.456 275.392 218.624 284.224 218.24 293.824 218.24 304.256c0 8.96 0.32 18.24 1.216 28.544C219.712 336.832 220.16 340.736 220.544 343.872l0.128 1.152c0.512 3.136 1.024 6.144 1.536 9.216 3.264 17.92 8.32 36.48 15.104 55.104 0.896 2.56 1.92 5.056 2.944 7.552l0 0c0.64 1.344 1.28 2.688 1.856 4.096 0.896 2.176 1.984 4.48 2.432 5.504 3.84 8.128 8.256 16.576 13.568 25.728 4.16 7.104 8.896 14.528 14.464 22.592 2.368 3.392 4.864 6.784 6.656 9.152l0.192 0.32c1.856 2.368 3.712 4.608 5.632 6.848 11.392 13.568 24.512 26.752 39.104 39.296 2.048 1.728 6.016 3.392 6.016 5.12l0 0c0 0.704 2.24 1.536 3.584 2.56 1.92 1.408 4.16 3.008 5.12 3.712 7.296 5.248 15.296 10.368 24.32 15.744 9.344 5.504 19.264 10.688 30.336 15.744 2.496 0.896 4.864 1.92 7.168 3.2L401.28 576.704c13.12 5.632 22.656 17.92 26.112 33.6 1.152 4.288 1.664 8.768 1.664 13.184 0 6.72-1.344 13.312-3.84 19.584C424.256 645.696 423.104 648.128 421.76 650.496 414.784 662.4 403.136 671.36 389.824 675.008c-2.816 0.768-5.696 1.344-8.32 1.536C379.52 676.8 377.536 676.928 375.616 676.928c-8.704 0-17.408-2.24-25.152-6.464L350.016 670.272c-77.248-33.28-143.488-93.056-186.496-168.256C142.144 464.512 126.656 422.528 118.784 380.544c-8.384-44.8-9.088-90.304-2.176-139.2 11.072-78.208 48.96-154.176 106.688-213.888 57.216-59.328 131.584-100.16 209.344-115.456 25.6-4.992 51.776-7.296 77.76-7.296l0 0c60.224 0 119.04 12.992 174.784 38.976 70.976 33.088 132.672 90.112 173.632 161.024 42.432 73.28 60.352 159.36 50.688 242.752C898.816 438.656 859.904 520.896 796.736 585.408zM509.696 387.968c29.376 0 53.12 23.936 53.12 53.376L562.816 809.792c0 29.44-23.744 53.376-53.12 53.376S456.512 839.232 456.512 809.792l0-368.384C456.512 411.968 480.32 387.968 509.696 387.968z"  horiz-adv-x="1024" />

    
    <glyph glyph-name="faxian-on" unicode="&#58904;" d="M945.724 384.069c0-83.503-178.842-261.637-433.701-261.637-248.372 0-433.701 175.202-433.701 261.637 0 86.422 186.128 261.356 433.701 261.356 256.862-0.001 433.762-174.935 433.701-261.357zM512.405 597.701c-115.427 0-208.998-95.714-208.998-213.774 0-118.061 93.57-213.774 208.998-213.774 115.462 0 209.036 95.714 209.036 213.774-0.001 118.060-93.574 213.774-209.036 213.774zM512.023 520.406c-73.507 0-133.097-60.94-133.097-136.122 0-75.173 59.59-136.125 133.097-136.125s133.073 60.952 133.073 136.125c0 75.182-59.566 136.122-133.073 136.122z"  horiz-adv-x="1024" />

    
    <glyph glyph-name="zhifuqianbao" unicode="&#59027;" d="M714.597743-30.07983 152.708496-30.07983c-50.968835 0-87.416955 41.932018-87.416955 93.445252L65.29154 531.899468c0 50.395784 36.449143 91.415013 87.416955 91.415013l561.889247 0c50.967812 0 97.43103-41.019229 97.43103-91.415013l0-121.939213c0-14.71412-11.94096-26.669406-26.669406-26.669406s-26.669406 11.955286-26.669406 26.669406L758.68996 531.899468c0 21.3564-22.177092 38.0762-44.092217 38.0762L152.708496 569.975668c-21.916149 0-34.079166-16.7198-34.079166-38.0762l0-468.533023c0-21.747303 12.891611-40.108486 34.079166-40.108486l561.889247 0c21.186532 0 44.092217 18.361183 44.092217 40.108486L758.68996 183.273373c0 14.739702 11.941983 26.669406 26.669406 26.669406s26.669406-11.929704 26.669406-26.669406l0-119.906927C812.028772 11.852188 765.565555-30.07983 714.597743-30.07983zM235.229954 63.756325c-43.611264 0-76.596516 35.706223-76.596516 79.618339L158.633439 369.958192c0 7.369851 5.963829 13.33368 13.334703 13.33368 7.357572 0 13.334703-5.963829 13.334703-13.33368l0-226.583528c0-29.195949 21.017686-52.947909 49.927109-52.947909 7.357572 0 13.334703-5.963829 13.334703-13.334703S242.586502 63.756325 235.229954 63.756325zM300.300972 63.262068l-13.334703 0c-7.357572 0-13.334703 5.963829-13.334703 13.332656 0 7.370875 5.977132 13.334703 13.334703 13.334703l13.334703 0c7.370875 0 13.334703-5.963829 13.334703-13.334703C313.635675 69.225897 307.671846 63.262068 300.300972 63.262068zM958.70846 262.369825c0-51.04763-41.383526-92.431156-92.430132-92.431156L677.770999 169.93867c-51.046606 0-92.430132 41.383526-92.430132 92.431156l0 55.160297c0 51.046606 41.383526 92.431156 92.430132 92.431156l188.507328 0c51.046606 0 92.430132-41.383526 92.430132-92.431156L958.70846 262.369825zM905.369647 317.530123c0 21.591761-17.500583 39.093367-39.09132 39.093367L677.770999 356.623489c-21.590737 0-39.09132-17.502629-39.09132-39.093367l0-55.160297c0-21.591761 17.501606-39.093367 39.09132-39.093367l188.507328 0c21.591761 0 39.09132 17.502629 39.09132 39.093367L905.369647 317.530123zM731.474109 290.966117c0-14.116509-11.460006-25.576515-25.562189-25.576515-14.116509 0-25.562189 11.460006-25.562189 25.576515s11.446703 25.548886 25.562189 25.548886C720.014102 316.515003 731.474109 305.082626 731.474109 290.966117zM650.346393 575.992709c-14.728446 0-26.669406 11.927657-26.669406 26.669406 0 79.037101-64.303538 143.340639-143.347802 143.340639-79.056544 0-143.359059-64.303538-143.359059-143.340639 0-14.740726-11.94096-26.669406-26.669406-26.669406s-26.669406 11.927657-26.669406 26.669406c0 108.441804 88.237647 196.679451 196.697871 196.679451 108.448968 0 196.685591-88.237647 196.685591-196.679451C677.015799 587.920366 665.074839 575.992709 650.346393 575.992709z"  horiz-adv-x="1024" />

    
    <glyph glyph-name="fabu1" unicode="&#58960;" d="M840.448949-6.748772 118.919001-6.748772 118.919001 711.879964l262.810941 0 0 55.261185L102.346786 767.141149c-21.333888 0-38.689993-17.525983-38.689993-39.067611l0-751.017931c0-21.542652 17.356106-39.069658 38.689993-39.069658l754.678473 0c21.332864 0 38.687947 17.527006 38.687947 39.069658l0 284.503003-55.261185 0L840.448949-6.748772 840.448949-6.748772zM564.294478 192.129071l-243.755042-0.00614 0.446183 244.785561L704.216823 820.849905c6.743911 6.731631 15.67678 10.813795 25.16226 11.503537 11.521957 0.837105 22.809566-3.368886 30.969801-11.540378l187.836863-188.176617c7.488914-7.503241 11.606896-17.472768 11.594615-28.070635-0.00921-10.601961-4.145612-20.565348-11.649877-28.054262L564.294478 192.129071zM371.799302 243.291718l171.356749 0.00307 360.693851 361.325261L732.251641 776.528387 372.114496 415.660566 371.799302 243.291718z"  horiz-adv-x="1025" />

    
    <glyph glyph-name="mima" unicode="&#60934;" d="M808.405757 524.66367l-79.129198 0c0 127.0977-97.023754 224.168526-220.885759 224.168526-123.864052 0-220.86427-97.071849-220.86427-224.168526l-79.129198 0c0 152.516626 134.566812 303.297724 299.992445 303.297724C673.815409 827.961394 808.405757 677.180296 808.405757 524.66367L808.405757 524.66367zM808.405757 524.66367M855.152431 394.698666c0 43.698245-35.437094 79.129198-79.129198 79.129198L247.975744 473.827865c-43.698245 0-79.129198-35.430954-79.129198-79.129198l0-375.560538c0-43.668569 35.430954-79.099523 79.129198-79.099523l528.071024 0c43.668569 0 79.104639 35.430954 79.104639 79.129198L855.151407 394.698666 855.152431 394.698666zM575.544245 101.065046c0-32.789801-26.564006-59.352783-59.352783-59.352783l-8.413624 0c-32.766264 0-59.325154 26.562982-59.325154 59.352783L448.452685 261.988132c0 32.766264 26.558889 59.33027 59.354829 59.33027l8.411577 0c32.760125 0 59.325154-26.564006 59.325154-59.354829L575.544245 101.065046 575.544245 101.065046zM575.544245 101.065046"  horiz-adv-x="1024" />

    
    <glyph glyph-name="yaoqing" unicode="&#58929;" d="M696 305q8-7 18.5-4.5t16.5 12.5q4 7 4 18-3 10-10 17-3 2-7 4.5t-7.5 4.5-7.5 4-7.5 4-8 4-8.5 4q4 4 8 7.5t7.5 8 6.5 8.5 6 9l6 8q3 5 5.5 9.5t4.5 9.5l4 10q19 43 19 93 0 63-31 116t-84.5 84-117.5 31q-96 0-163-68.5t-67-164.5q0-46 17.5-88.5t50.5-74.5q-101-47-161.5-140.5t-60.5-204.5q0-4 1.5-8t3.5-7 5-5.5 7-3.5 8-1q11 0 18 7t7 18q0 103 59.5 188.5t156.5 120.5q36-21 77.5-28t82.5 0.5 77 27.5q38-14 64-30zM694 534q0-20-3.5-38t-11.5-35q-11-27-39-55-52-52-126.5-52t-127.5 52.5-53 127 53 127 127 52.5q85 0 140-65 41-51 41-114zM889 143l-95 95q-8 8-20 8t-20-8q-7-8-8-18v-5q0-2 1-4t1.5-3.5 1.5-3.5l4-3 50-49h-172q-11 0-19-8t-8-19q0-2 0.5-4.5t1-4.5 1.5-4l4-4q1-2 2.5-3.5t3.5-2.5 4.5-2 4.5-1.5 5-0.5h172l-50-49q-7-9-8-19 0-7 2-11.5t6-7.5q6-8 19-8t19 8l95 95q1 1 2 2.5t2 3.5 2 3q4 10 0 20 0 4-4 8z"  horiz-adv-x="1024" />

    
    <glyph glyph-name="yanjing" unicode="&#58933;" d="M509.952 660.48c122.88-1.024 229.376-26.624 327.68-82.944 51.2-29.696 98.304-65.536 135.168-112.64 12.288-15.36 22.528-32.768 29.696-50.176 10.24-25.6 9.216-50.176-3.072-74.752-14.336-29.696-34.816-55.296-59.392-77.824-62.464-60.416-135.168-100.352-216.064-128-45.056-15.36-92.16-25.6-139.264-29.696-47.104-5.12-94.208-4.096-140.288 1.024-118.784 15.36-225.28 58.368-318.464 134.144-30.72 25.6-58.368 54.272-77.824 89.088-6.144 10.24-10.24 22.528-14.336 33.792-6.144 20.48-1.024 39.936 8.192 58.368 14.336 30.72 35.84 56.32 60.416 78.848 56.32 53.248 121.856 91.136 194.56 118.784 51.2 19.456 104.448 32.768 159.744 37.888C478.208 658.432 499.712 659.456 509.952 660.48zM528.384 150.528c9.216 1.024 24.576 2.048 39.936 5.12 67.584 14.336 120.832 50.176 156.672 108.544 32.768 54.272 40.96 113.664 24.576 175.104-16.384 60.416-53.248 105.472-106.496 137.216-45.056 26.624-93.184 36.864-145.408 31.744-51.2-5.12-97.28-24.576-136.192-59.392-40.96-36.864-66.56-82.944-73.728-137.216-9.216-66.56 8.192-125.952 52.224-176.128C387.072 179.2 448.512 151.552 528.384 150.528zM656.384 384c0-63.488-37.888-116.736-94.208-136.192-48.128-16.384-105.472-1.024-139.264 35.84C378.88 332.8 372.736 400.384 407.552 455.68 430.08 490.496 460.8 510.976 501.76 517.12c72.704 10.24 139.264-37.888 152.576-110.592C655.36 397.312 656.384 389.12 656.384 384zM573.44 491.52c-34.816 0-63.488-28.672-63.488-63.488 0-34.816 28.672-63.488 63.488-63.488 34.816-1.024 63.488 28.672 63.488 63.488C636.928 462.848 608.256 491.52 573.44 491.52z"  horiz-adv-x="1024" />

    
    <glyph glyph-name="anquan1" unicode="&#59010;" d="M620.648136 463.842077 489.616832 337.119833 424.639813 400.032093C416.61419 407.842262 403.543378 407.842262 395.445939 400.032093 387.348497 392.221923 387.348497 379.599973 395.445939 371.789803L471.285376 298.428072C472.165143 296.973765 473.260362 295.501503 474.571035 294.262649 478.736459 290.240861 484.212554 288.355647 489.688651 288.427464 495.164746 288.283829 500.640841 290.240861 504.806265 294.262649 506.116938 295.501503 507.212156 296.973765 508.073968 298.428072L649.913828 435.671602C657.957406 443.463817 657.957406 456.103724 649.842011 463.842077 641.816389 471.652246 628.745575 471.652246 620.648136 463.842077M736.279939 446.979292C736.279939 144.609028 530.199191 105.629998 521.509256 104.103874 519.552224 103.726832 517.505421 103.583196 515.530436 103.583196 513.555451 103.583196 511.508648 103.816603 509.533663 104.103874 500.861681 105.629998 296.307058 144.537211 296.307058 446.979292L296.307058 528.743686C296.307058 537.79271 300.185211 546.482646 307.043797 552.605101 313.327842 558.296651 321.640734 561.438671 330.187035 561.438671 330.994983 561.438671 331.713159 561.438671 332.44929 561.366854 332.952014 561.295037 338.428111 561.007767 346.902592 561.007767 360.996807 561.007767 388.951826 561.959349 415.003679 568.153623 454.718841 577.579688 495.385584 619.628924 496.768075 620.562553 502.459623 624.225252 508.959121 626.038649 515.530436 626.038649 522.101751 626.038649 528.673067 624.225252 534.436432 620.490735 545.747713 613.201243 584.51129 576.179245 618.157858 568.153623 644.155848 561.959349 671.679962 561.007767 685.756222 561.007767 694.230705 561.007767 699.7068 561.295037 700.137706 561.366854 700.945654 561.438671 701.681785 561.438671 702.471781 561.438671 711.018081 561.438671 719.27711 558.296651 725.5432 552.605101 732.329968 546.482646 736.279939 537.79271 736.279939 528.743686L736.279939 446.979292ZM516.302477 895.6062C236.105912 895.6062 8.982593 668.482879 8.982593 388.304271 8.982593 108.107708 236.105912-119.015611 516.302477-119.015611 796.481085-119.015611 1023.604405 108.107708 1023.604405 388.304271 1023.604405 668.482879 796.481085 895.6062 516.302477 895.6062L516.302477 895.6062Z"  horiz-adv-x="1024" />

    
    <glyph glyph-name="dui" unicode="&#59004;" d="M416.058904 119.205195c-10.475586 0-20.951171 3.996011-28.943193 11.989055L131.272789 387.037173c-15.985066 15.985066-15.985066 41.901319 0 57.886385s41.901319 15.985066 57.886385 0l226.898707-226.898707 418.780899 418.780899c15.985066 15.985066 41.901319 15.985066 57.886385 0s15.985066-41.901319 0-57.886385L445.002097 131.19425C437.010075 123.202229 426.53449 119.205195 416.058904 119.205195z"  horiz-adv-x="1024" />

    
    <glyph glyph-name="kefu1" unicode="&#58928;" d="M349.806933 318.583467c0 0 0-152.900267 168.277333-152.900267 168.354133 0 168.354133 152.900267 168.354133 152.900267S524.8 170.7776 349.806933 318.583467L349.806933 318.583467zM826.9824 380.8c0 170.581333-138.2912 308.855467-308.898133 308.855467-170.606933 0-308.8896-138.274133-308.8896-308.855467 0-83.5584 33.220267-159.2064 87.048533-214.843733 24.4736-22.033067 51.165867-41.4464 80.5376-56.772267 15.957333-8.234667 33.6128-16.605867 52.0704-24.200533 28.270933-8.3968 58.2656-13.098667 89.275733-13.098667C688.6912 71.936 826.9824 210.193067 826.9824 380.8L826.9824 380.8zM518.084267 118.2976c-144.955733 0-262.545067 117.512533-262.545067 262.545067s117.589333 262.510933 262.545067 262.510933c144.9984 0 262.5792-117.486933 262.5792-262.510933S663.082667 118.2976 518.084267 118.2976L518.084267 118.2976zM911.172267 477.738667c-43.4432 176.759467-202.973867 307.805867-393.088 307.805867-190.045867 0-349.457067-130.909867-392.9856-307.566933 0 0-109.047467-17.245867-104.251733-126.907733 4.821333-109.6192 119.816533-116.258133 119.816533-116.258133 1.3824-3.549867 25.591467 3.370667 34.261333 4.8896-17.92 43.460267-27.8784 91.136-27.8784 141.1072 0 204.9024 166.1184 371.037867 371.0208 371.037867 204.928 0 371.0208-166.135467 371.0208-371.037867 0-163.524267-105.745067-302.267733-252.586667-351.6672-9.454933-3.242667-19.4304 1.066667-19.4304 1.066667s-24.891733 4.6592-56.106667-4.1728c-15.325867-4.394667-21.930667-20.7616-20.983467-35.1232 1.134933-17.083733 7.620267-29.405867 25.472-32.110933 22.971733-3.618133 55.68-7.688533 68.078933 16.878933 3.362133 6.690133 6.946133 19.1232 14.839467 21.7344 113.476267 38.6048 204.270933 126.088533 247.355733 237.405867 0 0 114.346667 13.354667 117.649067 118.792533C1016.849067 459.042133 911.172267 477.738667 911.172267 477.738667L911.172267 477.738667z"  horiz-adv-x="1024" />

    
    <glyph glyph-name="yingyong2" unicode="&#59002;" d="M513.416533 864.682667C244.002133 864.682667 25.6 646.280533 25.6 376.8576 25.6 107.451733 244.002133-110.933333 513.416533-110.933333c103.0656 0 198.6304 31.940267 277.393067 86.4768-0.162133 0.059733-0.315733 0.145067-0.503467 0.1792 8.004267 6.468267 13.1072 16.3072 13.1072 27.3664 0 19.3792-15.709867 35.080533-35.089067 35.080533-10.589867 0-20.096-4.693333-26.538667-12.151467 0 0.085333-0.042667 0.145067-0.0768 0.187733-65.501867-42.564267-143.709867-67.3024-227.669333-67.3024-231.176533 0-418.568533 187.4176-418.568533 418.577067 0 231.168 187.383467 418.568533 418.568533 418.568533 231.159467 0 418.56-187.392 418.56-418.568533 0-94.933333-31.616-182.5024-84.864-252.714667-7.202133-6.442667-11.767467-15.778133-11.767467-26.180267 0-19.3792 15.726933-35.106133 35.131733-35.106133 8.994133 0 17.2288 3.396267 23.432533 9.0112 0.034133-0.042667 0.034133-0.068267 0.034133-0.0768 0.093867 0.093867 0.1792 0.2048 0.273067 0.3328 2.858667 2.653867 5.2736 5.751467 7.1424 9.198933 62.276267 81.92 99.2512 184.081067 99.2512 294.9376C1001.233067 646.280533 782.8224 864.682667 513.416533 864.682667L513.416533 864.682667zM513.416533 864.682667M267.272533 238.848l224.785067-135.236267L492.0576 368.5888 267.272533 503.8336 267.272533 238.848zM267.272533 238.848M506.666667 651.281067l-211.968-109.653333 219.374933-138.052267L733.422933 516.266667 506.666667 651.281067zM506.666667 651.281067M538.752 369.8176l0-264.977067 219.4688 112.708267 0 0L758.2208 482.517333 538.752 369.8176zM538.752 369.8176"  horiz-adv-x="1024" />

    
    <glyph glyph-name="quxiantu" unicode="&#58905;" d="M106.817 767.511c9.813 0.121 18.722 0.602 22.876-4.816 5.779-7.525 3.010-28.956 3.010-41.538 0-35.518 0-71.036 0-106.554 0-135.63 0-271.321 0-406.951 0-32.327 0-64.594 0-96.922 0-13.305-3.311-29.317 5.418-34.916 5.9-3.793 37.143-1.204 46.956-1.204 41.538 0 83.076 0 124.614 0 155.497 0 311.053 0 466.549 0 55.805 0 111.55 0 167.356 0 10.535-2.528 17.819-19.505 9.632-30.702-7.043-9.572-33.23-6.020-49.364-6.020-47.137 0-94.333 0-141.47 0-162.901 0-325.922 0-488.823 0-41.959 0-83.858 0-125.818 0-14.689 0-39.431-3.191-48.16 3.612-11.619 9.030-6.622 77.236-6.622 101.136 0 100.112 0 200.285 0 300.397 0 79.465 0 158.928 0 238.393 0 20.709-4.515 66.762 3.612 78.862 2.409 3.612 6.502 4.816 10.234 7.223zM794.902 712.127c8.487 0.241 21.010 1.324 25.886-2.407 10.777-8.247-1.565-68.869-4.214-81.27-3.973-18.722 3.853-42.923-18.662-42.742-6.020 4.395-11.077 16.013-18.060 18.060-18.421 5.358-41.538-39.491-49.966-49.364-28.113-32.809-57.852-65.437-84.281-99.932-11.739-15.291-24.201-37.023-45.15-42.742-15.351-4.154-34.194 9.572-41.538 16.857-30.22 30.16-63.089 57.671-93.31 87.892-7.585 7.585-29.017 34.073-43.344 31.906-18.241-2.769-45.571-35.939-56.588-48.762-5.418-3.612-10.836-7.223-16.254-10.836-9.211-9.451-18.481-18.843-27.692-28.294-4.395-2.589-8.849-5.237-13.244-7.826-20.167-15.532-35.879-36.121-56.588-51.772-16.314-12.281-52.494-57.911-71.638-14.448-14.869 33.833 26.127 49.785 40.935 65.017 45.993 47.197 99.691 87.169 146.286 133.644 12.401 12.401 37.083 44.367 65.017 38.528 18.662-3.913 31.725-21.973 43.344-33.712 23.659-23.899 50.688-44.367 74.046-68.628 7.043-7.344 32.809-36.119 48.762-29.498 8.428 3.492 15.593 18.843 21.070 25.886 19.083 24.562 40.153 47.015 58.394 72.842 8.91 12.642 47.377 46.655 48.16 60.802-2.95 6.923-7.405 15.050-12.642 19.866-4.697 4.334-13.063 6.983-15.050 13.846-6.321 21.973 14.207 15.712 25.284 17.458 6.622 1.806 13.244 3.612 19.866 5.418 17.037 1.385 34.133 2.829 51.17 4.214zM803.33 497.214c21.491 0.241 38.227-3.010 44.548-18.060 8.308-19.806 4.214-54.782 4.214-83.678 0-58.996 0-117.993 0-176.988 0-31.003 5.117-69.711-9.030-87.29-12.401-15.411-47.739-11.438-75.25-11.438-6.803-0.421-13.665-0.783-20.468-1.204-5.538 0.903-8.669 4.395-12.642 6.622-6.502 3.612-14.207 6.622-17.458 13.244-5.298 10.896-1.806 46.053-1.806 61.404 0 65.196 0 130.453 0 195.65 0 22.816-4.635 72.361 4.214 86.688 10.174 16.555 36.963 14.448 63.812 14.448 6.622 0.181 13.244 0.421 19.866 0.602zM398.185 424.372c32.508 0.241 84.22 5.358 95.718-16.254 9.451-17.759 6.622-49.966 6.622-76.454 0-42.561 0-85.062 0-127.623 0-22.033 2.528-48.341-4.214-65.017-3.732-9.211-18.060-17.518-28.294-19.866-11.859 0.181-23.659 0.421-35.518 0.602-21.552 0-45.933-1.987-58.394 7.225-22.455 16.615-13.846 100.353-13.846 141.47 0 39.19-6.622 125.276 9.030 145.684 6.562 8.548 17.819 5.779 28.896 10.234zM561.927 351.53c34.013 0.301 91.444 6.201 104.146-15.050 10.535-17.699 9.632-40.575 9.632-68.628 0-50.929 11.077-129.671-24.682-145.684-10.234-4.575-28.535-2.409-42.14-2.409-32.388 0-58.935-3.492-72.24 16.254-6.441 9.513-3.010 75.852-3.010 94.514 0 22.935-4.214 96.26 3.612 108.962 5.117 8.308 15.532 7.525 24.682 12.041zM216.381 266.649c41.719 0.482 88.614 5.599 106.554-19.264 3.371-4.635 5.478-12.823 6.622-19.264-0.181-24.682-0.421-49.364-0.602-74.046-3.371-11.859-13.786-26.97-24.080-31.906-5.237-2.528-82.654-4.997-89.095-3.010-8.609 2.589-23.899 12.16-27.090 20.468-5.358 13.906-1.204 61.344-1.204 81.27 0 9.873-1.445 23.177 2.407 29.498 5.418 8.849 17.578 10.777 26.487 16.254z"  horiz-adv-x="1024" />

    
    <glyph glyph-name="bianjiedit26" unicode="&#58965;" d="M933.82656 484.80256l-49.87904-49.88928L744.97024 573.88032l49.88928 49.88928c15.7184 15.7184 39.35232 17.664 52.6848 4.34176l90.624-90.63424C951.49056 524.15488 949.54496 500.52096 933.82656 484.80256zM721.80736 550.72768 860.78464 411.7504 529.38752 80.35328c-1.52576-1.52576-5.74464-5.7344-11.66336-7.24992-0.68608-0.32768-1.3824-0.60416-2.07872-0.82944l-172.9536-55.11168c-4.84352-1.536-9.70752-0.55296-12.86144 2.6112-3.16416 3.16416-4.1472 8.02816-2.63168 12.86144l55.12192 172.93312c0.23552 0.7168 0.512 1.41312 0.82944 2.07872 1.51552 5.92896 5.72416 10.1376 7.26016 11.66336L452.68992 281.6 242.33984 281.6c-8.47872 0-15.36 6.87104-15.36 15.36s6.88128 15.36 15.36 15.36l241.07008 0L721.80736 550.72768zM486.63552 91.0336l-85.5552 85.54496-22.94784-72.04864 36.46464-36.46464L486.63552 91.0336zM716.46208 495.49312c-4.9152 4.92544-12.89216 4.92544-17.80736 0L440.29952 237.14816c-4.9152-4.9152-4.9152-12.89216 0-17.8176 4.9152-4.9152 12.9024-4.9152 17.8176 0l258.34496 258.34496C721.38752 482.60096 721.38752 490.57792 716.46208 495.49312zM700.85632 3.66592c0-9.23648-7.50592-16.75264-16.7424-16.75264l-304.8448 0-27.53536-8.77568c-5.5296-1.76128-11.2128-2.65216-16.90624-2.65216-12.11392 0-23.37792 4.15744-32.59392 11.42784L143.98464-13.08672c-9.23648 0-16.76288 7.50592-16.76288 16.75264L127.22176 707.11296c0 9.23648 7.51616 16.75264 16.76288 16.75264l62.80192 0 0-26.5216c0-9.24672 7.49568-16.7424 16.75264-16.7424s16.75264 7.49568 16.75264 16.7424l0 26.5216 96.29696 0 0-26.5216c0-9.24672 7.49568-16.7424 16.75264-16.7424s16.75264 7.49568 16.75264 16.7424l0 26.5216 83.74272 0 0-26.5216c0-9.24672 7.49568-16.7424 16.75264-16.7424s16.75264 7.49568 16.75264 16.7424l0 26.5216 92.11904 0 0-26.5216c0-9.24672 7.49568-16.7424 16.7424-16.7424 9.25696 0 16.76288 7.49568 16.76288 16.7424l0 26.5216 71.17824 0c9.22624 0 16.7424-7.51616 16.7424-16.75264l0-116.00896 17.55136 17.55136 32.69632 32.69632 0 65.76128c0 36.93568-30.0544 66.99008-66.99008 66.99008l-71.17824 0L612.9664 814.58176c0 9.24672-7.49568 16.75264-16.76288 16.75264-9.23648 0-16.7424-7.49568-16.7424-16.75264l0-40.47872L487.3216 774.10304 487.3216 814.58176c0 9.24672-7.49568 16.75264-16.75264 16.75264s-16.75264-7.49568-16.75264-16.75264l0-40.47872-83.74272 0L370.0736 814.58176c0 9.24672-7.49568 16.75264-16.75264 16.75264s-16.75264-7.49568-16.75264-16.75264l0-40.47872-96.29696 0L240.27136 814.58176c0 9.24672-7.49568 16.75264-16.75264 16.75264s-16.75264-7.49568-16.75264-16.75264l0-40.47872-62.80192 0c-36.93568 0-67.00032-30.0544-67.00032-66.99008l0-703.4368c0-36.93568 30.06464-66.99008 67.00032-66.99008l540.13952 0c36.93568 0 66.99008 30.0544 66.99008 66.99008L751.09376 247.552l-50.24768-50.25792L700.84608 3.66592zM570.01984 573.44l-327.68 0c-8.47872 0-15.36-6.87104-15.36-15.36s6.88128-15.36 15.36-15.36l327.68 0c8.47872 0 15.36 6.87104 15.36 15.36S578.49856 573.44 570.01984 573.44zM570.01984 449.59744l-327.68 0c-8.47872 0-15.36-6.87104-15.36-15.36s6.88128-15.36 15.36-15.36l327.68 0c8.47872 0 15.36 6.87104 15.36 15.36S578.49856 449.59744 570.01984 449.59744z"  horiz-adv-x="1024" />

    
    <glyph glyph-name="licai" unicode="&#59003;" d="M804.126 854.166l30.805-24.719-107.666-134.178-30.805 24.719 107.666 134.178zM973.376 703.478l-132.527-109.713-25.188 30.427 132.527 109.713 25.188-30.427zM551.882 586.001c-9.449 9.449-22.829 14.868-36.7 14.868-13.886 0-27.279-5.421-36.714-14.882l-168.659-168.659c-9.803-9.803-15.196-22.842-15.196-36.714 0-13.899 5.407-26.938 15.196-36.714l168.619-168.619c9.803-9.83 22.855-15.237 36.741-15.237 13.913 0 26.951 5.407 36.714 15.196l168.633 168.619c9.817 9.803 15.223 22.855 15.223 36.741 0 13.899-5.407 26.938-15.196 36.714l-168.659 168.687zM692.606 371.821l-168.687-168.659c-4.697-4.71-12.794-4.751-17.558 0.041l-168.633 168.646c-2.362 2.349-3.618 5.393-3.618 8.766 0 3.373 1.257 6.403 3.632 8.779l168.673 168.659c2.102 2.102 5.297 3.305 8.766 3.305s6.676-1.201 8.766-3.305l168.673-168.687c2.362-2.349 3.618-5.393 3.618-8.766 0-3.359-1.257-6.389-3.632-8.779zM959.556 569.481l-35.908-15.81c25.299-57.467 38.121-118.539 38.121-181.507 0-248.764-202.383-451.147-451.147-451.147s-451.147 202.383-451.147 451.147 202.383 451.147 451.147 451.147c48.387 0 96.228-7.742 142.213-23.006l12.356 37.233c-49.985 16.589-101.99 24.999-154.57 24.999-270.404 0-490.387-219.983-490.387-490.387s219.983-490.387 490.387-490.387 490.387 219.983 490.387 490.387c0 68.458-13.954 134.841-41.452 197.331z"  horiz-adv-x="1024" />

    
    <glyph glyph-name="zixun" unicode="&#59048;" d="M650 562.7 373.3 562.7c-11 0-19.9-8.6-19.9-19.1l0-319.3c0-10.5 8.9-19.1 19.9-19.1L650 205.2c11 0 19.9 8.6 19.9 19.1l0 319.3C669.9 554.2 661 562.7 650 562.7zM522 520.8l9.1-32.9 3.4-12.2c0.1 0.6 1.1 4.5 3 11.7l9.1 33.3 9.9 0 8.5-33 2.8-10.9 3.3 11 9.8 32.9 9.4 0-17.8-56.9-10 0 0 0-9.1 34.1-2.2 9.7-11.5-43.8-10.1 0L512 520.8 522 520.8zM459 514.1c4.9 5.3 11.3 7.9 19.2 7.9 7.6 0 13.8-2.6 18.7-7.8 4.8-5.2 7.2-12.5 7.2-21.9 0-0.6 0-1.4-0.1-2.6l-42.4 0c0.4-6.3 2.1-11 5.3-14.4s7.2-5 11.9-5c3.5 0 6.6 0.9 9.1 2.8 2.5 1.9 4.5 4.8 6 8.9l10-1.2c-1.6-5.8-4.5-10.3-8.7-13.6-4.3-3.2-9.7-4.8-16.3-4.8-8.3 0-14.9 2.6-19.8 7.7-4.9 5.1-7.3 12.3-7.3 21.6C451.6 501.4 454.1 508.8 459 514.1zM390.8 520.8l8.7 0 0-8.1c4.2 6.3 10.2 9.4 18.1 9.4 3.4 0 6.6-0.6 9.5-1.9 2.9-1.2 5-2.9 6.5-4.8 1.4-2 2.4-4.4 3-7.1 0.4-1.8 0.5-4.9 0.5-9.4l0-35-9.7 0 0 34.6c0 3.9-0.4 6.9-1.1 8.8-0.8 1.9-2.1 3.5-4 4.7-1.9 1.2-4.1 1.7-6.7 1.7-4.1 0-7.7-1.3-10.6-3.9-3-2.6-4.5-7.6-4.5-14.8l0-31.1-9.6 0L390.9 520.8zM628.4 256.7c0-5.3-4.5-9.6-10-9.6L404.6 247.1c-5.5 0-10 4.3-10 9.6l0 22c0 5.3 4.5 9.6 10 9.6l213.8 0c5.5 0 10-4.3 10-9.6L628.4 256.7zM628.4 338.9c0-5.3-4.5-9.6-10-9.6l-213.8 0c-5.5 0-10 4.3-10 9.6l0 22c0 5.3 4.5 9.6 10 9.6l213.8 0c5.5 0 10-4.3 10-9.6L628.4 338.9zM628.4 407.2c0-5.3-4.5-9.6-10-9.6L404.6 397.6c-5.5 0-10 4.3-10 9.6l0 22c0 5.3 4.5 9.6 10 9.6l213.8 0c5.5 0 10-4.3 10-9.6L628.4 407.2zM641.9 471.5c-1.9-2.8-4.6-5-8.1-6.6s-7.5-2.3-12-2.3c-7.4 0-13 1.5-16.9 4.6-3.9 3.1-6.4 7.6-7.4 13.7l9.5 1.5c0.5-3.8 2-6.8 4.5-8.8 2.4-2 5.9-3.1 10.3-3.1 4.4 0 7.7 0.9 9.9 2.7 2.1 1.8 3.2 3.9 3.2 6.4 0 2.2-0.9 3.9-2.8 5.1-1.3 0.9-4.6 1.9-9.9 3.3-7.1 1.8-12 3.3-14.7 4.6-2.7 1.3-4.8 3.1-6.2 5.4-1.4 2.3-2.1 4.8-2.1 7.6 0 2.5 0.6 4.9 1.7 7.1 1.2 2.2 2.7 4 4.7 5.4 1.5 1.1 3.5 2 6.1 2.8s5.4 1.2 8.3 1.2c4.5 0 8.4-0.6 11.8-1.9 3.4-1.3 5.9-3 7.5-5.2s2.7-5.1 3.3-8.8l-9.4-1.3c-0.4 2.9-1.7 5.2-3.7 6.9-2.1 1.6-5 2.5-8.7 2.5-4.4 0-7.6-0.7-9.5-2.2-1.9-1.5-2.8-3.2-2.8-5.1 0-1.2 0.4-2.4 1.2-3.4 0.8-1 2-1.9 3.7-2.6 1-0.4 3.8-1.2 8.5-2.5 6.8-1.8 11.6-3.3 14.3-4.5 2.7-1.2 4.8-2.9 6.4-5.1 1.5-2.2 2.3-5 2.3-8.3C644.7 477.4 643.8 474.3 641.9 471.5zM490.3 508.6c-3.1 3.7-7.1 5.6-12 5.6-4.4 0-8.2-1.5-11.2-4.4-3-3-4.7-6.9-5-11.9l31.8 0C493.5 502.6 492.3 506.2 490.3 508.6zM512 880c-273.5 0-496-222.5-496-496s222.5-496 496-496 496 222.5 496 496S785.5 880 512 880zM711 183.5c0-10.6-8.9-19.1-19.9-19.1L332.9 164.4c-11 0-19.9 8.6-19.9 19.1l0 401c0 10.5 8.9 19.1 19.9 19.1l358.2 0c11 0 19.9-8.6 19.9-19.1L711 183.5z"  horiz-adv-x="1024" />

    
    <glyph glyph-name="qianbaozhifumaijia" unicode="&#59265;" d="M640 448 288 448C276.608 448 266.112 450.88 256 454.464L256 192c0-35.392 28.608-64 64-64l320 0c35.392 0 64 28.608 64 64L704 384C704 419.392 675.392 448 640 448zM608 256l-64 0C526.336 256 512 270.336 512 288S526.336 320 544 320l64 0C625.664 320 640 305.664 640 288S625.664 256 608 256zM480 832C214.848 832 0 617.152 0 352S214.848-128 480-128 960 86.848 960 352 745.152 832 480 832zM768 192c0-70.656-57.344-128-128-128L320 64c-70.656 0-128 57.344-128 128L192 544c0 4.416 0.896 8.64 2.496 12.416C200.896 603.328 239.36 640 288 640l384 0C689.664 640 704 625.664 704 608S689.664 576 672 576l-384 0C270.336 576 256 561.664 256 544S270.336 512 288 512L640 512c70.656 0 128-57.344 128-128L768 192z"  horiz-adv-x="1024" />

    
    <glyph glyph-name="wodeqianbao1" unicode="&#59011;" d="M512.37 820.743c-247.315 0-447.806-200.489-447.806-447.806s200.489-447.806 447.806-447.806 447.806 200.489 447.806 447.806-200.489 447.806-447.806 447.806zM493.396 572.689c15.638 8.195 31.090 16.386 46.35 24.569 15.258 8.187 27.168 14.516 35.735 18.994 13.033 7.076 24.663 10.333 34.896 9.773 10.233-0.56 18.886-2.327 25.961-5.306 8.195-4.098 15.27-9.492 21.228-16.19l32.375-62.001h-253.509c20.109 10.425 39.093 20.479 56.964 30.161zM765.881 390.096h-126.756c-14.151 0-26.16-4.842-36.022-14.525-9.865-9.684-14.796-21.599-14.796-35.737 0.371-9.686 2.419-18.247 6.148-25.695 2.977-6.324 7.908-12.095 14.795-17.313 6.882-5.22 16.843-7.828 29.876-7.828h126.756v-101.596c0-7.077-1.21-13.678-3.628-19.814-2.419-6.134-5.861-11.535-10.327-16.191-4.468-4.658-9.679-8.287-15.636-10.882-5.956-2.595-12.47-3.901-19.547-3.911h-405.391c-7.076 0-13.774 1.303-20.099 3.911-6.324 2.609-11.911 6.236-16.762 10.882-4.847 4.645-8.665 10.042-11.451 16.191-2.789 6.145-4.181 12.753-4.181 19.814v278.631c0 14.153 4.932 26.16 14.795 36.025 9.865 9.862 21.872 14.795 36.022 14.795h405.39c14.15 0 26.158-4.932 36.022-14.795 9.862-9.865 14.795-21.872 14.795-36.025v-75.937zM664.246 339.833c0-7.076-2.419-13.126-7.255-18.153-4.837-5.028-10.791-7.541-17.867-7.541-7.077 0-13.033 2.513-17.87 7.541-4.837 5.028-7.255 11.076-7.255 18.153 0 7.077 2.419 13.033 7.255 17.87 4.837 4.837 10.791 7.255 17.87 7.255 7.076 0 13.029-2.419 17.867-7.255 4.837-4.837 7.255-10.791 7.255-17.87z"  horiz-adv-x="1024" />

    
    <glyph glyph-name="yinxingqia" unicode="&#58992;" d="M921.355737 677.139364 100.596627 677.139364c-21.667485 0-39.23049-17.429974-39.23049-38.925544l0-508.59853c0-21.379936 17.544585-38.923498 39.23049-38.923498l820.759109 0c21.667485 0 39.23049 17.427928 39.23049 38.923498L960.586227 638.213819C960.586227 659.594779 943.023222 677.139364 921.355737 677.139364zM276.397562 188.375577c0-10.766205-8.857738-19.490913-19.491936-19.490913L139.501706 168.884664c-10.766205 0-19.491936 8.857738-19.491936 19.490913L120.009769 305.778474c0 10.766205 8.857738 19.490913 19.491936 19.490913l117.402897 0c10.767228 0 19.491936-8.856715 19.491936-19.490913L276.396539 188.375577zM735.704456 207.980078 442.633654 207.980078c-16.246009 0-29.398564 13.021571-29.398564 29.323862 0 16.186657 12.942777 29.321816 29.398564 29.321816l293.070802 0c16.246009 0 29.398564-13.019525 29.398564-29.321816C765.104043 221.115236 752.160243 207.980078 735.704456 207.980078zM833.522296 207.980078c-16.208147 0-29.321816 13.135158-29.321816 29.323862 0 16.186657 13.113669 29.321816 29.321816 29.321816 16.207124 0 29.321816-13.135158 29.321816-29.321816C862.844112 221.115236 849.729419 207.980078 833.522296 207.980078zM921.48979 501.03246c0-10.709923-8.667404-19.376303-19.490913-19.376303L119.953488 481.656157c-10.766205 0-19.490913 8.818853-19.490913 19.376303l0 78.536704c0 10.709923 8.667404 19.376303 19.490913 19.376303l782.045389 0c10.766205 0 19.490913-8.819876 19.490913-19.376303L921.48979 501.03246z"  horiz-adv-x="1024" />

    
    <glyph glyph-name="chongzhi3" unicode="&#59042;" d="M938.666667 294.4c-4.266667 34.133333-17.066667 72.533333-34.133333 98.133333-17.066667 29.866667-34.133333 51.2-55.466667 72.533333-21.333333 21.333333-38.4 38.4-59.733333 51.2-21.333333 17.066667-38.4 29.866667-55.466667 42.666667-17.066667 12.8-29.866667 25.6-42.666667 38.4-8.533333 8.533333-12.8 12.8-21.333333 21.333333L669.866667 669.866667c4.266667 4.266667 4.266667 8.533333 8.533333 12.8 4.266667 4.266667 8.533333 8.533333 12.8 12.8 8.533333 8.533333 12.8 17.066667 21.333333 25.6 4.266667 4.266667 8.533333 8.533333 25.6 17.066667 8.533333 4.266667 17.066667 12.8 25.6 21.333333 8.533333 8.533333 12.8 21.333333 12.8 29.866667 4.266667 12.8 0 25.6-4.266667 34.133333-8.533333 12.8-17.066667 21.333333-34.133333 25.6l0 0C725.333333 853.333333 716.8 853.333333 708.266667 853.333333c-8.533333 0-12.8-4.266667-21.333333-4.266667-4.266667 0-12.8-4.266667-17.066667-8.533333 0 0-4.266667 0-8.533333 0l-4.266667 0c-4.266667 0-8.533333 4.266667-8.533333 4.266667C644.266667 849.066667 640 853.333333 635.733333 853.333333c-8.533333 8.533333-17.066667 12.8-29.866667 12.8-21.333333 8.533333-38.4 8.533333-55.466667 4.266667C537.6 870.4 524.8 861.866667 512 853.333333l0 0-4.266667-4.266667c0 0-4.266667 0-4.266667 4.266667 0 0-4.266667 0-4.266667 4.266667l-4.266667 0c-12.8 8.533333-25.6 12.8-42.666667 17.066667-17.066667 0-34.133333 0-51.2-8.533333C384 853.333333 371.2 849.066667 366.933333 840.533333c0 0 0 0-8.533333-4.266667l0 0L354.133333 836.266667C345.6 840.533333 337.066667 840.533333 328.533333 844.8c-8.533333 0-17.066667 4.266667-25.6 4.266667-12.8 0-25.6 0-38.4-8.533333l0 0C243.2 827.733333 234.666667 802.133333 243.2 776.533333c8.533333-17.066667 17.066667-29.866667 34.133333-42.666667C285.866667 733.866667 290.133333 725.333333 298.666667 716.8c8.533333-8.533333 12.8-12.8 21.333333-21.333333l12.8-21.333333 8.533333-12.8c0-4.266667 4.266667-38.4 4.266667-46.933333L324.266667 593.066667l0 0C311.466667 580.266667 298.666667 567.466667 285.866667 554.666667 268.8 541.866667 251.733333 529.066667 234.666667 512c-25.6-21.333333-46.933333-42.666667-68.266667-64C145.066667 426.666667 128 396.8 115.2 366.933333 98.133333 341.333333 89.6 307.2 85.333333 273.066667c-4.266667-34.133333-4.266667-72.533333 4.266667-106.666667 8.533333-34.133333 21.333333-68.266667 42.666667-98.133333 21.333333-34.133333 51.2-64 85.333333-89.6 34.133333-25.6 76.8-46.933333 128-64 51.2-17.066667 106.666667-25.6 170.666667-25.6 64 0 115.2 8.533333 166.4 29.866667 51.2 12.8 93.866667 34.133333 128 55.466667 34.133333 25.6 64 55.466667 89.6 85.333333 21.333333 34.133333 34.133333 68.266667 42.666667 106.666667C942.933333 217.6 947.2 256 938.666667 294.4zM610.133333 311.466667c12.8 0 25.6-12.8 25.6-25.6 0-12.8-12.8-25.6-25.6-25.6l-72.533333 0 0-46.933333 72.533333 0c12.8 0 25.6-12.8 25.6-25.6 0-12.8-12.8-25.6-25.6-25.6l-72.533333 0 0-72.533333c0-12.8-12.8-25.6-25.6-25.6-12.8 0-25.6 12.8-25.6 25.6l0 72.533333L413.866667 162.133333c-12.8 0-25.6 12.8-25.6 25.6 0 12.8 12.8 25.6 25.6 25.6l72.533333 0 0 46.933333L413.866667 260.266667c-12.8 0-25.6 12.8-25.6 25.6 0 12.8 12.8 25.6 25.6 25.6l72.533333 0 0 12.8-89.6 89.6c-8.533333 8.533333-8.533333 25.6 0 34.133333 8.533333 8.533333 25.6 8.533333 34.133333 0l81.066667-81.066667 81.066667 81.066667c8.533333 8.533333 25.6 8.533333 34.133333 0 8.533333-8.533333 8.533333-25.6 0-34.133333l-89.6-85.333333 0-12.8L610.133333 315.733333zM640 725.333333c-4.266667-4.266667-8.533333-8.533333-12.8-17.066667-4.266667-8.533333-8.533333-12.8-12.8-21.333333-8.533333-12.8-8.533333-21.333333-8.533333-51.2l0-4.266667L405.333333 631.466667c0 0 0 4.266667 0 8.533333 0 25.6 0 38.4-8.533333 51.2C396.8 704 388.266667 712.533333 384 716.8 379.733333 725.333333 375.466667 729.6 371.2 733.866667 362.666667 746.666667 349.866667 755.2 341.333333 768 332.8 772.266667 324.266667 776.533333 320 785.066667c4.266667 0 12.8-4.266667 17.066667-4.266667 12.8-4.266667 21.333333-4.266667 34.133333 0C384 780.8 401.066667 785.066667 409.6 793.6c0 0 8.533333 4.266667 21.333333 12.8 4.266667 0 8.533333 0 12.8 0 8.533333 0 8.533333-4.266667 8.533333-4.266667 4.266667-4.266667 8.533333-8.533333 12.8-12.8 4.266667 0 8.533333-4.266667 12.8-8.533333 4.266667-4.266667 8.533333-4.266667 17.066667-8.533333l8.533333-4.266667 8.533333 0c8.533333 0 12.8 0 21.333333 8.533333 8.533333 4.266667 12.8 8.533333 21.333333 17.066667 8.533333 4.266667 12.8 8.533333 17.066667 8.533333 0 0 4.266667 0 12.8 0l0 0c4.266667 0 8.533333-4.266667 8.533333-4.266667 4.266667-4.266667 8.533333-8.533333 12.8-12.8 8.533333-4.266667 12.8-8.533333 21.333333-12.8 8.533333-4.266667 21.333333-8.533333 34.133333-8.533333 12.8 0 21.333333 0 29.866667 4.266667 4.266667 0 4.266667 0 8.533333 4.266667-12.8-8.533333-25.6-17.066667-34.133333-25.6C657.066667 746.666667 648.533333 738.133333 640 725.333333z"  horiz-adv-x="1024" />

    
    <glyph glyph-name="renminbi" unicode="&#58987;" d="M851.2 838.4 608 430.933333l211.2 0 0-72.533333L561.066667 358.4l0-115.2 260.266667 0L821.333333 170.666667 561.066667 170.666667l0-241.066667-96 0L465.066667 170.666667 206.933333 170.666667l0 72.533333 258.133333 0 0 115.2L206.933333 358.4l0 72.533333 211.2 0L172.8 838.4l106.666667 0 234.666667-401.066667L746.666667 838.4 851.2 838.4z"  horiz-adv-x="1024" />

    
    <glyph glyph-name="xin" unicode="&#58938;" d="M700.856275 740.457458c-74.768891 0-144.295384-72.696696-190.046381-127.260405C465.073224 667.773042 395.563104 740.457458 320.754305 740.457458c-134.789892 0-244.443291-105.780185-244.443291-235.799424 0-77.56968 39.277562-131.98808 70.844511-175.712931 91.752704-126.998439 322.464249-285.038872 332.234777-291.701618 9.410324-6.414083 20.424168-9.629311 31.401174-9.629311 11.005658 0 21.998013 3.215228 31.397081 9.629311 9.782807 6.662747 240.514819 164.703179 332.23887 291.701618 31.586392 43.723827 70.873164 98.143251 70.873164 175.712931C945.299567 634.678296 835.645145 740.457458 700.856275 740.457458L700.856275 740.457458zM700.856275 740.457458"  horiz-adv-x="1024" />

    
    <glyph glyph-name="qukuailianjishu" unicode="&#58980;" d="M285.466604 257.427098C164.683976 401.666176 66.397235 521.98399 67.051633 524.79999c0.654397 2.816 49.630792 59.84 108.836429 126.72l107.646618 121.6 221.038607 0 221.038592 0 91.984589-103.223337c50.591488-56.772833 100.435405-112.783514 110.764237-124.468173l18.779699-21.244831-209.973402-250.571822c-115.485338-137.814528-214.950861-256.841626-221.034496-264.50473l-11.061115-13.932954-219.604787 262.252954zm293.57227 34.315264c39.590195 108.22529 71.982131 198.601242 71.982131 200.835446 0 2.234199-65.664 4.062182-145.919995 4.062182-92.661627 0-145.92-1.845852-145.92-5.057352 0-4.132347 30.991375-90.671365 141.011804-393.755464 1.424077-3.923046 3.551048-6.170982 4.7266-4.99543 1.175552 1.175552 34.529316 90.685338 74.11946 198.910618zM713.299405 330.24c71.589632 84.47999 131.927654 156.47999 134.084454 159.99999 3.06176 4.996905-11.145933 6.4-64.806246 6.4l-68.727706 0L658.683238 369.92c-84.223642-193.465139-90.723021-209.228954-82.854707-200.96 4.019302 4.224 65.88119 76.8 137.470874 161.28zm-349.832596 6.942515l-67.625933 159.457475-66.036598 0c-36.320133 0-65.268603-1.935124-64.329933-4.300278 2.456858-6.190541 262.551521-316.925286 264.222531-315.66633 0.767729 0.578406-29.035802 72.807526-66.230067 160.509133zM368.113254 624.63999c34.616044 40.832 65.280461 78.272 68.14315 83.2 4.844319 8.339292 0.628844 8.96-60.851154 8.96l-66.056044 0-68.524099-77.739633c-37.688253-42.756797-70.403523-80.838799-72.700595-84.626673-3.434941-5.66422 8.361211-6.633733 66.436987-5.460367l70.613489 1.426673 62.938266 74.24zm272.66775-74.637204c0 2.800906-129.570248 160.396165-133.66891 162.580408-3.079199 1.64096-137.691085-156.743547-137.691085-162.007501 0-1.504635 61.056-2.735703 135.68-2.735703 74.623995 0 135.679995 0.973256 135.679995 2.162796zm203.542118 4.237204c-1.161114 3.52-33.033114 41.390285-70.82665 84.156186l-68.715469 77.756186-67.84 0.32384c-37.312 0.178074-67.84-1.14624-67.84-2.942976 0-3.835269 127.621786-156.241449 135.466854-161.774807 2.933248-2.068879 36.053146-3.796879 73.599795-3.84 52.353126-0.060109 67.774566 1.413489 66.155469 6.321597z"  horiz-adv-x="1024" />

    
    <glyph glyph-name="dongtaih" unicode="&#59021;" d="M512-128C229.2224-128 0 101.2224 0 384 0 666.7776 229.2224 896 512 896 794.7776 896 1024 666.7776 1024 384 1024 101.2224 794.7776-128 512-128ZM400.9728 495.0272 204.5696 102.2208 597.4272 298.624 793.8304 691.4304 400.9728 495.0272ZM499.2 358.4C478.0032 358.4 460.8 375.6032 460.8 396.8 460.8 417.9968 478.0032 435.2 499.2 435.2 520.3968 435.2 537.6 417.9968 537.6 396.8 537.6 375.6032 520.3968 358.4 499.2 358.4Z"  horiz-adv-x="1024" />

    
    <glyph glyph-name="touzi004" unicode="&#59013;" d="M849.306266 640.277988c-2.12356 1.54855-4.419803 2.922818-6.856351 4.089028L571.984291 800.504954l-7.917632 4.627662c-33.631198 16.998675-72.93535 16.75564-106.098265-1.113845L180.751347 643.983675l-5.758696-3.410088c-33.61401-20.757726-53.675608-56.807285-53.675608-96.442212l0-320.38418c0-38.868247 19.486588-74.535265 52.97948-95.918567l277.687328-160.297518c1.35688-0.904986 2.71396-1.686856 4.15858-2.487913l1.600115-0.922175c16.511405-9.013289 35.268488-13.779258 54.251617-13.779258 18.999318 0 37.737214 4.766968 54.230632 13.779258l2.367795 1.427632c0.800058 0.470081 1.599116 0.939163 2.401172 1.443621l270.691671 156.206492 9.151595 5.394543c31.944342 20.687174 51.344988 55.677251 51.848447 93.971487L902.685475 544.341233C902.685475 583.279033 882.275713 619.885414 849.306266 640.277988M849.234715 222.911762c-0.277412-20.008234-10.508475-38.504094-26.392506-48.803711l-279.21869-161.184317-1.828161-1.131033c-0.660752-0.38334-1.321704-0.78187-1.982456-1.182398-17.296273-9.169783-39.965903-8.577584-55.677251-0.018188l-2.001643 1.149221-12.996388-23.350768 11.030122 24.531967-168.978033 97.451128-108.935342 62.984696c-17.206534 11.015132-27.491161 29.840768-27.491161 50.386638l0 320.386378c0 20.965585 10.579227 40.018467 27.891689 50.717613L484.030923 757.355009c8.402903 4.522734 18.077144 6.907916 27.961242 6.907916 9.342266 0 18.475673-2.175125 27.22774-6.473011l277.617575-160.348883 3.58457-2.156938c17.781544-10.614403 28.811666-30.136368 28.811666-50.94466l0-321.427472L849.234715 222.911962zM612.298358 427.001989l0-213.031964c0-37.339884 57.90494-37.339884 57.90494 0l0 213.031964C670.202299 464.339674 612.298358 464.339674 612.298358 427.001989M451.357076 356.154024l0-142.254551c0-37.337685 57.903941-37.337685 57.903941 0l0 142.254551C509.261017 393.491908 451.357076 393.491908 451.357076 356.154024M290.417993 337.920586l0-124.054291c0-37.339884 57.903941-37.339884 57.903941 0l0 124.054291C348.320934 375.257272 290.417993 375.257272 290.417993 337.920586M681.581384 623.435607c-5.340979 6.68187-13.450481 11.100674-22.514335 11.100674l-96.269729 0c-37.353874 0-37.353874-57.903941 0-57.903941l34.311137 0c-73.579913-75.858968-177.677535-125.568664-284.541681-120.523285-37.355873 1.757408-37.181391-56.145333 0-57.902942 119.461005-5.636578 233.579833 48.2297 317.548102 130.45675l0-29.978075c0-37.337885 57.903941-37.337885 57.903941 0l0 99.921853C691.427108 608.229716 688.175513 617.137277 681.581384 623.435607"  horiz-adv-x="1024" />

    
    <glyph glyph-name="facebook" unicode="&#59160;" d="M530.110473 30.51627l109.783359 0 0-0.067538C621.25431 30.449755 577.021899 30.449755 530.110473 30.51627L530.110473 30.51627 530.110473 30.51627zM335.854211 734.417905c-15.820314-0.276293-31.776727-1.306762-46.085618-3.990894-15.548114-2.956332-29.717835-6.878664-43.88858-14.100136-14.375405-7.291057-26.755364-17.267269-37.832653-28.065196-10.797927-11.07422-20.770046-23.524786-28.063149-37.832653-7.153934-14.170744-11.144828-28.27088-14.103206-43.88551-2.680039-14.308891-3.714602-30.265304-3.990894-46.089711-0.067538-3.576455-0.067538-6.878664-0.137123-12.038174l-0.204661-309.542962c0-3.919263 0.067538-8.184403 0.067538-12.863982 0.137123-11.211343 0.207731-15.819291 0.275269-21.115923 0.276293-15.820314 1.310855-31.780821 3.990894-46.088688 1.306762-6.808056 2.750647-13.343913 4.607948-19.672038 2.408863-8.184403 5.434779-16.166191 9.495258-24.142863 7.29208-14.379499 17.265222-26.759457 28.063149-37.832653 11.07729-10.800997 23.527856-20.774139 37.832653-28.066219 14.170744-7.153934 28.27395-11.143805 43.88858-14.103206 14.308891-2.680039 30.265304-3.711532 46.085618-3.986801 5.296633-0.070608 9.904581-0.137123 21.118993-0.275269 10.660804-0.070608 19.396769-0.137123 25.862018-0.137123l147.204643 0L530.040888 303.671487l-88.526219 0 0 102.149495 87.908142 0 0 95.067192c0 72.982198 56.406684 125.261888 129.318274 125.261888l94.378507-2.066055 0-98.089016-72.088852 0c-20.840654 0-37.766139-23.044856-37.766139-43.956118l0-76.216869 106.349143 0-15.134699-102.217033-94.582145 0 0-273.086655 4.541433 0c6.465249 0 15.201214 0.070608 25.862018 0.137123 8.873088 0.070608 13.620206 0.137123 17.813714 0.137123 1.102101 0 2.204202 0 3.372817 0.070608 15.820314 0.276293 31.780821 1.306762 46.088688 3.990894 15.544021 2.955308 29.714765 6.878664 43.88551 14.100136 14.375405 7.29208 26.755364 17.264199 37.832653 28.066219 10.79895 11.07422 20.774139 23.524786 28.066219 37.832653 7.153934 14.169721 11.140735 28.27088 14.100136 43.88551 2.683109 14.308891 3.714602 30.265304 3.990894 46.089711 0.067538 5.296633 0.137123 9.904581 0.275269 21.115923 0.066515 10.660804 0.137123 19.396769 0.137123 25.862018L865.863377 513.404232l0 7.496741c0 5.230118-0.070608 11.419074-0.137123 18.436908-0.137123 11.211343-0.207731 15.819291-0.275269 21.115923-0.276293 15.823384-1.306762 31.780821-3.990894 46.089711-2.958378 15.544021-6.878664 29.714765-14.100136 43.88551-7.29208 14.375405-17.267269 26.759457-28.066219 37.832653-11.07729 10.797927-23.524786 20.774139-37.832653 28.065196-14.170744 7.154957-28.27395 11.144828-43.88551 14.100136-14.308891 2.683109-30.269397 3.714602-46.088688 3.990894-5.296633 0.070608-9.904581 0.137123-21.115923 0.275269-10.731412 0.070608-19.467377 0.137123-25.932626 0.137123L382.835222 734.830297c-6.465249 0-15.201214-0.067538-25.862018-0.137123C345.758792 734.556051 341.150844 734.488513 335.854211 734.417905L335.854211 734.417905zM335.854211 734.417905"  horiz-adv-x="1024" />

    
    <glyph glyph-name="jianhaob" unicode="&#59082;" d="M735.971028 326.358185l-488.874303 0c-16.993023 0-30.780027 13.776771-30.780027 30.780027 0 17.003256 13.787004 30.780027 30.780027 30.780027l488.874303 0c16.993023 0 30.780027-13.776771 30.780027-30.780027C766.751055 340.134956 752.96405 326.358185 735.971028 326.358185z"  horiz-adv-x="1024" />

    
    <glyph glyph-name="zhifubao" unicode="&#58981;" d="M230.404452 319.463513C218.3168 309.735513 205.360974 295.533078 201.598887 277.479513 196.478887 252.81447 200.530365 221.938643 224.327235 197.718817 253.155061 168.35673 296.964452 160.320557 315.886191 158.940383 367.286539 155.222817 422.070539 180.711513 463.364452 209.784209 479.548104 221.204035 507.262887 244.13273 533.753322 279.505252 474.383583 310.15847 400.277148 344.061774 321.050713 340.744904 280.580452 339.053078 251.5968 330.66073 230.404452 319.463513ZM983.262609 183.919304C1009.463652 245.426087 1024 313.032348 1024 384 1024 666.312348 794.334609 896 512 896 229.665391 896 0 666.312348 0 384 0 101.665391 229.665391-128 512-128 682.384696-128 833.491478-44.27687 926.630957 84.123826 838.633739 127.866435 693.604174 199.858087 604.271304 243.422609 561.641739 194.82713 498.621217 146.120348 427.430957 124.928 382.70887 111.638261 342.394435 106.562783 300.232348 115.177739 258.493217 123.725913 227.750957 143.270957 209.830957 162.860522 200.704 172.855652 190.21913 185.566609 182.628174 200.681739 183.340522 198.767304 183.830261 197.632 183.830261 197.632 183.830261 197.632 179.46713 205.156174 176.128 217.132522 174.413913 222.920348 173.256348 228.953043 172.78887 235.27513 172.432696 239.415652 172.343652 243.778783 172.588522 248.32 172.210087 256.022261 172.521739 264.102957 174.258087 272.384 178.44313 292.61913 187.080348 316.193391 209.430261 338.075826 258.493217 386.114783 324.207304 388.697043 358.244174 388.496696 408.665043 388.207304 496.283826 366.146783 570.056348 340.057043 590.491826 383.577043 603.603478 430.124522 612.062609 461.156174L305.307826 461.156174 305.307826 494.32487 462.825739 494.32487 462.825739 560.662261 272.13913 560.662261 272.13913 593.830957 462.825739 593.830957 462.825739 660.146087C462.825739 669.250783 464.62887 676.730435 479.410087 676.730435L554.028522 676.730435 554.028522 593.830957 761.321739 593.830957 761.321739 560.662261 554.028522 560.662261 554.028522 494.32487 719.849739 494.32487C719.849739 494.32487 703.198609 401.497043 651.130435 310.00487 766.686609 268.733217 929.257739 205.156174 983.262609 183.919304Z"  horiz-adv-x="1024" />

    
    <glyph glyph-name="shouye2" unicode="&#60935;" d="M405.923568 794.277224C279.295566 689.174468 205.614449 619.540528 95.310228 498.647133c-27.430746-35.963073-22.976294-102.870926 0-102.870926 71.362304 0 102.870926 0 102.870926 0s0-128.160915 0-257.177314c0-37.830607 5.390777-102.869902 45.196365-102.869902 65.173348 0 160.544463 0 160.544463 0L403.921981 292.911422l205.741851 0 0-257.18243c0 0 83.145675 0 148.308791 0 29.956266 0 57.43306 27.219945 57.43306 102.869902 0 132.344191 0 257.177314 0 257.177314s40.329521 0 102.869902 0c30.588669 0 35.552727 72.79084 0 102.870926C817.308009 601.34205 703.651436 700.659033 593.641927 790.882917 506.79393 858.694349 459.622584 849.703581 405.923568 794.277224z"  horiz-adv-x="1024" />

    
    <glyph glyph-name="erweima" unicode="&#59030;" d="M423.836543 781.180951l0 0.274246L204.08256 781.455197c-45.911656 0-83.09451-36.932144-83.356476-82.59309l-0.023536 0 0-207.579709c0-2.468215 0.500397-4.782933 1.239224-7.000438 6.678096-39.245839 40.831964-69.164243 82.140789-69.164243L423.836543 415.117718l0 0.237407c38.877449 2.432399 70.477144 31.363312 76.798107 68.926836 0.763386 2.217505 1.289366 4.532223 1.289366 7.000438L501.924016 698.862107l-0.025583 0C501.683539 742.746594 467.244168 778.461003 423.836543 781.180951zM458.038506 502.53979c0-24.14798-19.654642-43.705408-43.88551-43.705408L208.445938 458.834382c-24.230867 0-43.858904 19.557428-43.858904 43.705408L164.587034 694.019823c0 24.149003 19.628036 43.717687 43.858904 43.717687l205.708082 0c24.230867 0 43.88551-19.569708 43.88551-43.717687L458.039529 502.53979zM902.246517 700.888254c-0.215918 42.799782-33.818223 77.644381-76.153424 80.304977l0 0.261966L634.384863 781.455197c-44.790112 0-81.040734-36.037774-81.304747-80.56592l-0.023536 0 0-202.511273c0-2.407839 0.476861-4.673439 1.240247-6.831592 6.487761-38.292118 39.830147-67.472717 80.08906-67.472717l191.70823 0 0 0.226151c37.921681 2.385327 68.734454 30.613228 74.961272 67.246567 0.738827 2.158153 1.216711 4.423753 1.216711 6.831592L902.2721 700.888254 902.246517 700.888254zM859.461061 509.361149c0-23.551392-19.152199-42.643216-42.813085-42.643216L638.678656 466.717933c-23.658839 0-42.834574 19.091824-42.834574 42.643216L595.844082 696.167742c0 23.552415 19.175735 42.643216 42.834574 42.643216l177.969321 0c23.660886 0 42.813085-19.091824 42.813085-42.643216L859.461061 509.361149zM415.680792 356.112859l0 0.260943L201.839473 356.373803c-44.670385 0-80.874959-35.94363-81.114412-80.375585l-0.023536 0 0-201.974038c0-2.420119 0.477884-4.687766 1.215688-6.821359 6.464225-38.181601 39.73498-67.316152 79.922261-67.316152L415.680792-0.113331l0 0.236384c37.824467 2.350534 68.567655 30.529317 74.744331 67.079768 0.762363 2.133593 1.24127 4.40124 1.24127 6.821359L491.666394 275.998217l-0.049119 0C491.402381 318.691575 457.919802 353.46352 415.680792 356.112859zM448.975083 84.95923c0-23.493064-19.127639-42.524512-42.691311-42.524512L212.953601 42.434717c0 0-0.022513 0-0.047072 0l-6.822382 0c-23.563672 0-42.690288 19.031449-42.690288 42.524512L163.393859 271.312498c0 23.469528 19.126616 42.525536 42.690288 42.525536l200.200648 0c23.563672 0 42.691311-19.056008 42.691311-42.525536L448.976106 84.95923zM721.154066 142.879384c-14.741749 0-26.66736-11.508102-26.66736-25.699312l0-51.395554c0-14.228049 11.924587-25.721825 26.66736-25.721825 14.736633 0 26.663266 11.492752 26.663266 25.721825l0 51.395554C747.817332 131.371282 735.891721 142.879384 721.154066 142.879384zM834.775846 168.601208c-14.739702 0-26.665313-11.494799-26.665313-25.697265l0-77.118402c0-14.214746 11.924587-25.701358 26.665313-25.701358 14.763239 0 26.688849 11.487635 26.688849 25.701358l0 77.118402C861.464695 157.105387 849.538061 168.601208 834.775846 168.601208zM834.775846 322.827779c-14.739702 0-26.665313-11.506055-26.665313-25.722848l0-51.395554c0-14.189164 11.924587-25.697265 26.665313-25.697265 14.763239 0 26.688849 11.508102 26.688849 25.697265l0 51.395554C861.464695 311.320701 849.538061 322.827779 834.775846 322.827779zM721.154066 322.804243c-14.741749 0-26.66736-11.507078-26.66736-25.709545L694.486706 194.264705c0-14.192234 11.924587-25.686009 26.66736-25.686009 14.736633 0 26.663266 11.492752 26.663266 25.686009L747.817332 297.094698C747.817332 311.297165 735.891721 322.804243 721.154066 322.804243zM606.050538 194.264705c-14.68956 0-26.640754-11.435447-26.640754-25.663496l0-102.81669c0-14.214746 11.951193-25.701358 26.640754-25.701358 14.787798 0 26.712385 11.487635 26.712385 25.701358L632.762923 168.601208C632.763946 182.829258 620.838336 194.264705 606.050538 194.264705zM606.050538 322.827779c-14.68956 0-26.640754-11.506055-26.640754-25.722848l0-25.709545c0-14.201443 11.951193-25.686009 26.640754-25.686009 14.787798 0 26.712385 11.484565 26.712385 25.686009l0 25.709545C632.763946 311.320701 620.838336 322.827779 606.050538 322.827779z"  horiz-adv-x="1024" />

    
    <glyph glyph-name="qianqianqian" unicode="&#59034;" d="M510.337639 835.542046c-247.512187 0-448.16002-200.648856-448.16002-448.16002 0-247.512187 200.647833-448.161043 448.16002-448.161043 247.51321 0 448.158996 200.648856 448.158996 448.161043C958.496635 634.89319 757.850849 835.542046 510.337639 835.542046zM385.027655 646.495436c11.216459 9.156544 31.502481-6.461155 44.341904-3.809769 11.302417 2.363837 14.283308 8.93551 27.866674 17.58961 10.691503 6.704702 26.989701 4.14132 33.214473-2.914376 6.309706-7.030114 17.700127-13.713326 17.700127-13.713326s3.679809 0.436952 13.232372 9.704013c9.641591 9.200546 18.314111 14.567787 34.438347 8.457626 16.124236-6.025227 18.402115-19.741623 34.704406-19.478633 16.520255 0.306992 22.341844 11.94096 36.628222 6.309706 16.431228-6.506181 9.818623-26.747177-3.025916-34.831296-15.332197-9.79304-22.255887-20.240997-30.362518-31.195489-8.236592-10.977006-21.73093-24.841781-21.73093-24.841781L444.177823 557.771719c0 0-15.685237 15.969717-24.183795 28.302603-8.457626 12.356422-19.456121 21.798469-29.53364 29.002544C380.382868 622.420111 373.855198 637.405407 385.027655 646.495436zM724.820572 251.509477c-14.19428-83.289961-88.595804-151.461597-215.442794-151.461597-130.96682 0-200.061478 82.365916-213.338876 154.969491-14.941294 81.622996 24.752754 149.734256 73.740468 192.319144 42.678008 37.001729 69.405743 76.718289 69.405743 76.718289l139.336442 0c0 0 25.584702-37.941124 73.173556-77.901231C692.177104 412.15627 742.173798 353.225089 724.820572 251.509477zM574.489728 297.032276c11.916401-0.12996 16.124236 6.046716 16.387225 13.495362 0.173962 6.52767-5.916756 18.62008-16.650215 18.928095l-47.585785 0 0 11.455913c0 0 36.103266 36.85028 45.481867 45.326325 9.330506 8.543583 11.653411 15.248286 5.867638 22.149463-5.782703 7.052626-16.123212 6.594185-23.660886 0.350994-7.621585-6.353708-44.515866-40.573067-44.515866-40.573067s-31.635511 32.641421-38.46915 39.193651c-6.176676 5.913687-19.190061 11.697413-26.201755 3.723811-7.359618-8.324596-1.663896-18.687618 2.891863-23.221888 4.600785-4.514827 44.164872-46.38033 44.164872-46.38033l-0.084934-12.595876-49.51267 0c-7.362688 0-13.846356-13.011338-13.672394-19.978007 0.306992-6.879688 5.783727-12.31242 13.672394-12.31242 7.710612 0 49.334615 0.306992 49.334615 0.306992l-0.084934-35.137265-51.353598 0c-7.274684 0-13.495362-7.318686-13.757329-14.33038-0.26299-6.879688 5.476735-16.299221 13.757329-16.299221l51.265594 0c0 0-0.088004-12.001335 0.173962-17.038048 0.791016-11.17962 8.061606-15.776312 17.877159-15.906272 9.815553-0.1361 16.739243 8.017604 16.739243 15.375176 0 6.048763-0.174985 17.569144-0.174985 17.569144s42.673915 0.045025 50.695612 0c8.106632-0.084934 14.06432 8.106632 13.801331 16.299221-0.26299 8.327666-5.344728 14.72333-17.526165 14.72333l-46.709835 0 0.26299 34.744315L574.489728 297.032276z"  horiz-adv-x="1024" />

    
    <glyph glyph-name="wenti-m" unicode="&#58994;" d="M512 830.016c-245.92 0-446.016-200.096-446.016-446.016 0-245.952 200.064-446.016 446.016-446.016 245.952 0 446.016 200.064 446.016 446.016-0 245.92-200.064 446.016-446.016 446.016zM512 1.984c-210.656 0-382.016 171.392-382.016 382.016 0 210.656 171.36 382.016 382.016 382.016 210.624 0 382.016-171.36 382.016-382.016-0-210.624-171.392-382.016-382.016-382.016zM512 640.8c-77.216 0-140.032-62.272-140.032-138.816 0-17.664 14.336-32 32-32s32 14.336 32 32c0 41.952 33.376 74.816 76.032 74.816 41.952 0 76.032-34.368 76.032-76.64 0-15.968-22.848-38.784-43.008-58.944-30.464-30.432-65.024-64.96-65.024-111.232v-45.696c0-17.696 14.336-32 32-32s32 14.304 32 32v45.696c0 19.744 23.52 43.264 46.272 65.984 28.928 28.928 61.76 61.728 61.76 104.192 0 77.568-62.816 140.64-140.032 140.64zM464 142.080c0-26.51 21.49-48 48-48s48 21.49 48 48c0 26.51-21.49 48-48 48-26.51 0-48-21.49-48-48z"  horiz-adv-x="1024" />

    
    <glyph glyph-name="dingdan" unicode="&#58983;" d="M634.271276 343.41056 389.087111 343.41056c-4.503571 0-8.157797-3.653203-8.157797-8.154727l0-16.347317c0-4.548596 3.653203-8.196683 8.157797-8.196683l245.185188 0c4.499477 0 8.15882 3.647063 8.15882 8.196683l-0.002047 16.347317C642.42805 339.757357 638.771777 343.41056 634.271276 343.41056zM511.482719 552.947853c11.260461 0 20.392446 9.129938 20.392446 20.384259 0 11.258415-9.131985 20.430308-20.392446 20.430308-11.302417 0-20.424168-9.171893-20.424168-20.430308C491.05855 562.077791 500.182348 552.947853 511.482719 552.947853zM634.271276 261.667837 389.087111 261.667837c-4.503571 0-8.157797-3.65525-8.157797-8.154727l0-16.347317c0-4.50664 3.653203-8.156774 8.157797-8.156774l245.185188 0c4.499477 0 8.15882 3.64911 8.15882 8.156774l-0.002047 16.347317C642.42805 258.012587 638.771777 261.667837 634.271276 261.667837zM511.676124 831.978894c-247.255337 0-447.695438-200.440102-447.695438-447.696462s200.440102-447.696462 447.695438-447.696462c247.25636 0 447.696462 200.440102 447.696462 447.696462S758.932484 831.978894 511.676124 831.978894zM429.819814 588.637704l32.659841 0c0 18.014282 14.635325 32.657794 32.655747 32.657794l32.657794 0c18.013259 0 32.659841-14.646582 32.659841-32.657794l32.657794 0 0-65.277726-97.975429 0-65.315588 0L429.819814 588.637704zM724.168726 212.587002c0-39.810704-35.759435-65.317635-67.414389-65.317635L366.600981 147.269367c-26.247804 0-67.416436 33.007765-67.416436 67.376527L299.184545 488.644315c0 28.930913 29.633924 67.36834 61.278645 67.36834l36.696784 0 0-65.267493 228.610698 0 0 65.267493 32.106232 0c31.654954 0 66.290799-29.274744 66.290799-67.600631L724.167702 212.587002zM634.271276 425.153282 389.087111 425.153282c-4.503571 0-8.157797-3.693112-8.157797-8.196683l0-16.34527c0-4.508687 3.653203-8.157797 8.157797-8.157797l245.185188 0c4.499477 0 8.15882 3.648087 8.15882 8.157797l-0.002047 16.34527C642.42805 421.459147 638.771777 425.153282 634.271276 425.153282z"  horiz-adv-x="1024" />

    
    <glyph glyph-name="kaiguananniu1" unicode="&#59045;" d="M731.191164 611.67028 292.091498 611.67028C166.872588 611.67028 64.421218 509.21891 64.421218 384l0 0c0-125.21891 102.45137-227.67028 227.67028-227.67028l439.099666 0c125.21891 0 227.67028 102.45137 227.67028 227.67028l0 0C958.860421 509.21891 856.409051 611.67028 731.191164 611.67028zM734.661196 175.999712c-114.875331 0-208.001311 93.124957-208.001311 208.001311s93.124957 208.001311 208.001311 208.001311 208.001311-93.124957 208.001311-208.001311S849.536526 175.999712 734.661196 175.999712z"  horiz-adv-x="1024" />

    
    <glyph glyph-name="woiconwodetuandui" unicode="&#59158;" d="M512 896C229.229714 896 0 666.770286 0 384c0-282.770286 229.229714-512 512-512s512 229.229714 512 512C1024 666.770286 794.770286 896 512 896zM701.68381 140.873143 251.026286 140.873143l0 53.930667c0 87.503238 53.857524 162.913524 131.413333 197.168762-28.793905 24.81981-46.933333 60.854857-46.933333 100.985905 0 74.849524 63.049143 135.533714 140.824381 135.533714 77.775238 0 140.824381-60.68419 140.824381-135.533714 0-40.131048-18.115048-76.166095-46.933333-100.985905 77.55581-34.255238 131.413333-109.665524 131.413333-197.168762L701.635048 140.873143zM787.407238 249.197714l-41.398857 0c-16.188952 65.219048-63.122286 119.003429-125.293714 146.383238 28.793905 24.771048 46.933333 60.732952 46.933333 100.766476 0 33.353143-12.580571 63.853714-33.401905 87.430095 52.662857-0.877714 95.085714-42.154667 95.085714-92.91581 0-27.526095-12.458667-52.248381-32.256-69.266286 53.321143-23.503238 90.331429-75.215238 90.331429-135.216762L787.407238 249.197714z"  horiz-adv-x="1024" />

    
    <glyph glyph-name="tixian" unicode="&#58911;" d="M463.155549 323.330222 463.155549 444.669778c0 54.426587 44.531216 98.957803 98.957803 98.957803L917.479965 543.627581l0 89.023546c0 40.210817-32.899294 73.110111-73.110111 73.110111L137.195685 705.761238c-40.210817 0-73.110111-32.899294-73.110111-73.110111l0-497.302253c0-40.210817 32.899294-73.110111 73.110111-73.110111l707.174168 0c40.210817 0 73.110111 32.899294 73.110111 73.110111l0 89.023546L562.113351 224.372419C507.685741 224.372419 463.155549 268.903635 463.155549 323.330222zM912.588561 490.776885 574.433958 490.776885c-24.90318 0-45.279253-20.37505-45.279253-45.279253l0-130.4654c0-24.90318 20.37505-45.279253 45.279253-45.279253L912.588561 269.752979c24.90318 0 45.279253 20.37505 45.279253 45.279253L957.867814 445.497633C957.867814 470.400812 937.491741 490.776885 912.588561 490.776885zM639.666658 340.358037c-22.039969 0-39.906895 17.866926-39.906895 39.906895s17.866926 39.906895 39.906895 39.906895 39.906895-17.866926 39.906895-39.906895S661.706627 340.358037 639.666658 340.358037z"  horiz-adv-x="1024" />

    
    <glyph glyph-name="weixin-copy" unicode="&#58964;" d="M571.648 384.060c-10.257 0-20.517-9.525-20.517-21.25 0-9.527 10.255-19.053 20.517-19.053 15.393 0 26.385 9.527 26.385 19.053 0 11.724-10.99 21.25-26.385 21.25v0zM504.225 483c16.123 0 26.385 10.257 26.385 25.651 0 16.123-10.261 25.649-26.385 25.649-15.39 0-30.048-9.527-30.048-25.649-0.001-15.396 14.659-25.651 30.048-25.651v0zM512.287 833.508c-248.427 0-449.813-201.386-449.813-449.813 0-248.425 201.386-449.812 449.813-449.812 248.425 0 449.812 201.386 449.812 449.812 0.001 248.427-201.385 449.813-449.812 449.813v0zM427.275 269.735c-27.119 0-46.906 4.394-72.556 11.725l-74.019-37.38 21.257 63.031c-52.035 36.64-82.818 82.811-82.818 139.243 0 99.67 93.808 175.889 208.137 175.889 101.135 0 191.279-60.097 208.867-145.113-7.328 1.469-13.926 2.199-19.788 2.199-99.67 0-176.619-74.75-176.619-164.894 0-15.388 2.199-29.313 5.863-43.972-5.863-0.728-12.461-0.728-18.324-0.728v0zM732.882 197.915l14.655-52.77-55.697 31.512c-21.252-4.394-41.773-10.99-63.025-10.99-98.206 0-175.889 67.422-175.889 150.968 0 83.547 77.685 150.97 175.889 150.97 93.072 0 176.619-67.423 176.619-150.97 0-46.9-31.512-88.673-72.552-118.721v0zM359.117 534.3c-15.39 0-31.512-9.527-31.512-25.649 0-15.395 16.122-25.656 31.512-25.656 14.66 0 26.385 10.261 26.385 25.656 0 16.122-11.725 25.649-26.385 25.649v0zM686.712 384.060c-10.995 0-20.522-9.525-20.522-21.25 0-9.527 9.527-19.053 20.522-19.053 14.655 0 25.649 9.527 25.649 19.053 0 11.724-10.994 21.25-25.649 21.25v0zM686.712 384.060z"  horiz-adv-x="1024" />

    
    <glyph glyph-name="saoyisao" unicode="&#58894;" d="M846.001 224.125l60.75 0 0-86.813c0-81.75-66.25-148-148.125-148l-86.75 0L671.876 50l86.75 0c48.25 0 87.375 39.125 87.375 87.313L846.001 224.125zM178.063 137.312l0 86.813L117.376 224.125l0-86.813c0-81.75 66.25-148 148-148L352.188-10.688 352.188 50l-86.813 0C217.251 50 178.063 89.125 178.063 137.312zM178.063 630.687c0 48.188 39.188 87.25 87.313 87.25L352.188 717.937l0 60.75-86.813 0c-81.75 0-148-66.25-148-148l0-86.813 60.688 0L178.063 630.687zM117.376 354l789.375 0 0 60.063L117.376 414.063 117.376 354zM758.626 778.687l-86.75 0 0-60.75 86.75 0c48.25 0 87.375-39.063 87.375-87.25l0-86.813 60.75 0 0 86.813C906.751 712.437 840.501 778.687 758.626 778.687z"  horiz-adv-x="1024" />

    
    <glyph glyph-name="tuichu" unicode="&#58941;" d="M666.737778 660.195556c-10.714074 5.30963-23.798519 0.853333-29.108148-9.860741-5.30963-10.808889-0.853333-23.798519 9.860741-29.108148 105.623704-52.148148 171.235556-157.582222 171.235556-275.342222 0-169.14963-137.576296-306.725926-306.725926-306.725926-169.14963 0-306.725926 137.576296-306.725926 306.725926 0 114.725926 63.241481 219.022222 165.072593 272.118519 10.619259 5.594074 14.791111 18.678519 9.197037 29.392593-5.594074 10.619259-18.773333 14.696296-29.392593 9.197037-116.242963-60.681481-188.491852-179.674074-188.491852-310.708148 0-193.137778 157.108148-350.245926 350.245926-350.245926 193.137778 0 350.245926 157.108148 350.245926 350.245926C862.245926 480.331852 787.342222 600.746667 666.737778 660.195556zM512 356.124444c10.42963 0 18.962963 9.765926 18.962963 21.712593L530.962963 750.648889c0 12.041481-8.533333 21.712593-18.962963 21.712593-10.42963 0-18.962963-9.765926-18.962963-21.712593l0-372.717037C493.037037 365.89037 501.57037 356.124444 512 356.124444z"  horiz-adv-x="1024" />

    
    <glyph glyph-name="yichenggong" unicode="&#58985;" d="M266.893606 756.561227C61.73811 621.700727 4.653997 346.250234 139.513474 141.095761c134.858454-205.15345 410.307923-262.238586 615.46342-127.380132 205.155497 134.859477 262.238586 410.30997 127.380132 615.465466C747.498572 834.333522 472.047056 891.418658 266.893606 756.561227L266.893606 756.561227M735.033679 44.128289C546.58161-79.513706 293.566082-27.166477 169.924087 161.038976 46.033429 349.492068 98.631368 602.257909 286.834774 726.148567c188.453093 123.890658 441.218934 71.293743 565.109592-116.910687C975.58636 421.034475 923.238109 168.017924 735.033679 44.128289L735.033679 44.128289M735.033679 44.128289M301.292044 704.212976c-175.9882-115.665323-225.096664-352.47782-109.431342-528.46602 115.663276-176.239933 352.476797-225.097688 528.46602-109.432365 176.237887 115.913986 225.096664 352.476797 109.432365 528.46602C714.094788 771.018497 477.531977 819.876252 301.292044 704.212976L301.292044 704.212976M710.605314 81.519898c-167.762865-110.181425-393.357879-63.565734-503.539304 104.19713-110.179378 167.762865-63.563688 393.357879 104.199177 503.538281 167.762865 110.181425 393.357879 63.565734 503.538281-104.19713C924.982846 417.04665 878.368178 191.699276 710.605314 81.519898L710.605314 81.519898M710.605314 81.519898M319.241858 395.857049c3.239787 58.579163 33.403784 114.916263 86.250386 149.814074 52.846602 34.651194 116.661 39.884382 171.751712 19.693528l18.944468 12.464893c-63.316048 27.91784-138.846278 24.179702-201.166649-16.70138-62.068637-40.881083-95.472422-108.685351-94.973048-177.983647L319.241858 395.857049 319.241858 395.857049M319.241858 395.857049M702.628642 374.668471c-3.241834-58.580187-33.403784-114.916263-86.250386-149.816121-52.846602-34.649148-116.661-39.884382-171.751712-19.693528l-18.944468-12.463869c63.316048-27.919886 138.846278-24.179702 201.164602 16.70138 62.070684 40.881083 95.473445 108.684328 94.975095 177.983647L702.628642 374.668471 702.628642 374.668471M702.628642 374.668471M323.728032 670.060131l28.6669-22.932292 30.6603 19.941168-12.96222-34.150798 28.41619-22.932292-36.392862 1.743714-12.963243-34.150798-9.720386 35.147498-36.644595 1.74576 30.662347 19.941168L323.728032 670.060131M323.728032 670.060131M221.025952 564.367951l35.396161-8.723685 19.194154 31.159674 2.742461-36.394908 35.398208-8.475022-33.653471-13.960966 2.742461-36.392862-23.681352 27.91784-33.652448-13.95892 19.194154 31.159674L221.025952 564.367951M221.025952 564.367951M461.57761 722.41043l16.20303-32.905434 36.145222 5.234211-26.174126-25.425066 16.20303-32.654724-32.405037 16.950044-26.176173-25.425066 6.232958 36.144198-32.406061 16.950044 36.146245 5.235235L461.57761 722.41043M461.57761 722.41043M608.900957 711.691297l0.747014-36.394908 35.149545-10.469446-34.651194-12.215206 0.74906-36.394908-22.185278 28.916587-34.649148-11.964496 20.938891 30.16195-22.185278 29.16525 34.898835-10.469446L608.900957 711.691297M608.900957 711.691297M172.416861 425.022299l35.896558 7.227612 4.238534 36.394908 17.946744-31.906687 35.896558 7.227612-24.928762-26.921139 17.948791-31.907711-33.155121 15.20633-24.926716-26.922163 4.236488 36.394908L172.416861 425.022299M172.416861 425.022299M698.142467 100.464365l-28.6669 22.934339-30.6603-19.943215 12.96222 34.150798-28.418236 22.934339 36.394908-1.74576 12.96222 34.150798 9.722432-35.147498 36.643572-1.743714-30.6603-19.943215L698.142467 100.464365M698.142467 100.464365M800.843524 206.156546l-35.398208 8.724709-19.194154-31.159674-2.741437 36.394908-35.398208 8.475022 33.652448 13.95892-2.741437 36.394908 23.681352-27.919886 33.652448 13.95892-19.194154-31.159674L800.843524 206.156546M800.843524 206.156546M560.042179 48.116113l-16.20303 32.905434-36.144198-5.235235 26.174126 25.427112-16.20303 32.654724 32.406061-16.95209 26.174126 25.427112-6.232958-36.144198 32.406061-16.95209-36.146245-5.234211L560.042179 48.116113M560.042179 48.116113M412.969543 58.835246l-0.74906 36.392862-35.147498 10.470469 34.649148 12.213159-0.747014 36.394908 22.185278-28.91454 34.649148 11.964496-20.939915-29.91431 22.185278-29.16525-34.897811 10.469446L412.969543 58.835246M412.969543 58.835246M849.451592 345.503221l-35.894512-7.229658-4.238534-36.394908-17.947767 31.907711-35.896558-7.229658 24.926716 26.922163-17.947767 31.907711 33.153074-15.20633 24.928762 26.921139-4.238534-36.392862L849.451592 345.503221M849.451592 345.503221M424.169629 311.856913c10.122545 1.694595 18.813484 3.532453 26.076912 5.53097 1.075495-2.512217 2.328022-5.712095 3.759627-9.597589 2.852978-7.777127 4.934382-13.922081 6.223748-18.425651 4.524037-12.035104-1.714038-23.521716-18.72548-34.443463l-58.405201-37.497009c-19.279089-12.377912-35.107589-8.927323-47.484478 10.352789L298.482045 285.615249l19.847024 12.741185 8.372691-13.041014 65.776076 42.228777-18.202571 28.351722-89.025593-57.154721-12.013615 18.7132 108.871593 69.895907 42.2298-65.778122-85.6231-54.970986 15.653515-24.381293c5.824659-9.073656 13.077853-10.821463 21.778003-5.236258l50.466392 32.399921c8.834202 6.197142 11.796674 12.378935 8.918114 18.538215-1.322112 2.877537-3.667529 7.779174-7.03523 14.700817C426.445462 306.637028 425.00567 309.716156 424.169629 311.856913zM527.524578 365.400387c10.784624-17.636682 10.187013-30.834262-1.805112-39.59581-5.67014-3.640923-10.400884-6.677073-14.176884-9.101285-5.858428 7.448646-11.040451 13.455453-15.576767 18.025539 3.891633 1.423419 7.532557 3.234671 10.936073 5.41943 5.288446 3.39533 5.997598 8.117888 2.112104 14.169721-4.235464 7.414877-7.561209 13.024641-9.989515 16.807804l-19.280112-12.377912c17.337877-27.844162 26.213012-51.234895 26.638707-70.180386-8.454556 1.515516-16.723893 2.351558-24.817222 2.485611 0.657986 16.436344-6.608511 36.057217-21.787212 58.881039l-29.123294 45.363164 63.508429 40.772612c-2.423189 3.773953-5.655813 8.379854-9.668197 13.811564-2.423189 3.774977-4.123924 6.423293-5.097088 7.939833l19.280112 12.377912c4.613064-7.185656 9.345856-14.557554 14.19735-22.11467l18.712177 12.013615c-0.86367 0.50756-2.226714 0.973164-4.087085 1.378393-6.315846 2.352581-11.955286 4.061502-16.921391 5.151323l9.646708 17.405415c2.106987-0.787946 5.569856-2.030239 10.402931-3.730974 5.450129-1.843998 9.844206-3.288906 13.196557-4.340865l-6.566556-12.223393 14.742772 9.465582 10.55745-16.444531-38.559201-24.7548c9.108448-13.369495 17.828041-24.863271 26.134217-34.469046-0.021489 13.323447-1.156336 26.747177-3.417843 40.246633l21.540595 2.618641c3.227508-22.4892 4.169973-43.503816 2.836605-63.039755 4.799306-3.325745 8.809643-5.829775 12.020778-7.497765 2.723018-0.930185 4.721535-0.709151 5.991458 0.64366 0.895393 1.100054 0.981351 3.03308 0.286526 5.789866-3.100618 8.143471-6.646374 15.750729-10.634198 22.800285 5.610788 0.400113 13.102413 1.205455 22.470781 2.415003 4.716418-8.18338 8.170077-17.714454 10.347672-28.589129 2.100848-8.260128-0.393973-15.192004-7.461949-20.805862-9.833973-6.314823-21.785166-5.980201-35.870975 0.99363-2.172479-9.927093-5.211698-20.161179-9.127891-30.683836-8.17724 2.75781-15.94618 4.452405-23.277146 5.074575 5.837962 13.358239 9.813506 27.120684 11.927657 41.290405-12.139481 11.42419-26.295899 28.485775-42.481534 51.201126l-45.930075-29.487591 9.828856-15.309684 38.559201 24.7548C510.421039 395.783371 517.009084 384.273223 527.524578 365.400387zM628.556623 392.627495l-17.641799 17.500583c1.783623 2.210341 4.322445 4.90266 7.615445 8.093329 3.428076 3.801583 5.964852 6.494924 7.616468 8.093329l-37.860283 58.972113-16.444531-10.55745-12.012591 18.712177 50.466392 32.399921 12.012591-18.712177-15.309684-9.828856 34.58468-53.868885c5.211698 6.010901 10.169617 11.597129 14.867616 16.752546 3.987824-7.049556 8.117888-13.481036 12.377912-19.280112-9.022491-10.070356-20.920472-24.378224-35.694967-42.935881C630.974695 395.506055 629.450992 393.727549 628.556623 392.627495zM746.82933 476.566232c7.731078-13.716396 5.040806-25.313525-8.079002-34.8139-3.925403-3.045359-10.409071-7.483438-19.481703-13.308097-5.019317 5.323239-10.844999 10.654664-17.48114 16.002462 7.049556 3.987824 13.025665 7.562233 17.941628 10.719132 6.804986 4.368494 8.022721 9.954723 3.654226 16.758686-7.256264 12.95915-19.669992 33.540907-37.251416 61.764716l-21.547759-13.834076c6.55223-10.206456 11.268648-18.389836 14.155395-24.542976 15.875572-33.048697 18.648732-63.562665 8.326643-91.545996-8.318456 2.140757-16.573467 3.77293-24.775266 4.912893 14.077623 28.78151 8.986675 62.086034-15.285125 99.891058l-15.309684-9.828856-11.286044 17.579377 15.877619 10.193153c-4.606925 7.176446-9.464559 14.741749-14.561647 22.681582l17.578354 11.285021c5.097088-7.939833 9.955746-15.505136 14.561647-22.681582l39.693024 25.483394C718.906373 522.963958 736.660736 494.061698 746.82933 476.566232z"  horiz-adv-x="1024" />

    
    <glyph glyph-name="jiaoyiguanli" unicode="&#58910;" d="M343.744 329.792c12.416 10.432 28.416 16.704 45.888 16.704 20.48 0 38.912-8.704 51.968-22.528l141.056 122.56c-9.024 11.968-14.4 26.752-14.4 42.88 0 39.488 32 71.424 71.424 71.424s71.424-32 71.424-71.424c0-18.368-7.04-35.136-18.432-47.808l218.368-261.12C942.272 241.6 960 310.72 960 384c0 247.424-200.576 448-448 448C342.4 832 194.88 737.728 118.784 598.784L343.744 329.792zM683.328 432.96c-12.096-9.344-27.2-14.976-43.648-14.976-18.752 0-35.776 7.296-48.512 19.136L449.472 313.984c7.296-11.2 11.584-24.576 11.584-38.912 0-39.488-32-71.424-71.424-71.424-39.488 0-71.424 32-71.424 71.424 0 17.408 6.208 33.344 16.576 45.696L112.448 586.496C81.536 525.696 64 456.896 64 384c0-247.424 200.576-448 448-448 169.216 0 316.48 93.824 392.704 232.32L683.328 432.96z"  horiz-adv-x="1024" />

    
    <glyph glyph-name="anquan" unicode="&#58942;" d="M891.81752889 715.83935147c-11.46443093 10.57896675-26.47071858 15.86845013-41.40710116 15.86845013-1.77092835 0-2.65639253 0-4.4040192 0-0.88546418 0-10.57896675-0.88546418-25.56195271-0.88546418-25.56195271 0-74.00616391 1.77092835-120.67944675 13.2120576-59.93194382 14.07422009-129.53408853 80.15780978-149.80655787 93.39316907-9.67020089 6.17494755-22.020096 9.69350258-33.48452693 9.69350258-11.44112925 0-22.88225849-3.51855502-33.46122525-9.69350258-2.63309085-1.77092835-74.8683264-76.63925475-145.35593529-93.39316907-46.69658453-11.44112925-96.91172409-13.2120576-121.56491093-13.2120576-15.86845013 0-25.53865102 0.88546418-26.4241152 0.88546418-0.88546418 0-2.65639253 0-3.51855502 0-15.86845013 0-29.96597191-5.28948338-41.40710116-15.86845013-12.32659342-10.57896675-19.36370347-26.4241152-19.36370347-42.29256534l0-146.21809778c0-539.1777792 365.58019698-608.73332053 380.56318294-611.38971306 3.51855502-0.88546418 7.06041173-0.88546418 10.55566506-0.88546418 3.51855502 0 7.08371342 0 10.60226845 0.88546418 15.84514845 2.65639253 383.19627378 72.23523555 383.19627378 611.38971306l0 146.21809778C910.29576818 689.41523627 903.21205475 705.26038471 891.81752889 715.83935147L891.81752889 715.83935147zM756.13179449 507.03291733L503.28516835 262.1554688c-1.77092835-2.65639253-3.51855502-5.31278507-6.17494755-7.08371342-7.06041173-7.03711005-16.73061262-10.55566507-26.4241152-10.55566507-9.71680427 0-19.38700515 3.51855502-27.30957938 10.55566507-1.77092835 1.77092835-4.38071751 4.4040192-5.28948337 7.08371342l-135.66243272 131.25841351c-14.09752178 14.09752178-14.09752178 36.09431609 0 50.19183787 14.07422009 14.12082347 37.86524445 14.12082347 51.96276622 0l116.29872925-111.87140836 233.45962098 225.51374507c15.00628765 14.09752178 37.86524445 14.09752178 51.96276622 0C771.09147875 544.0359992900001 771.09147875 521.13043911 756.13179449 507.03291733L756.13179449 507.03291733z"  horiz-adv-x="1024" />

    
    <glyph glyph-name="dingdan2" unicode="&#58895;" d="M793.346783 769.718899 742.289943 769.718899c-14.120602 0-30.417777-8.743128-30.417777-22.945595 0-14.207583 16.297175-28.41312 30.417777-28.41312l51.055816 0c30.417777 0 51.055816-20.762883 51.055816-51.355645l0-591.143525c0-30.592762-20.638039-51.355645-51.055816-51.355645L243.683998 24.505369c-30.41266 0-64.088644 20.762883-64.088644 51.355645l0 591.143525c0 30.592762 20.640086 51.355645 51.055816 51.355645l64.088644 0c14.124695 0 19.555381 14.205537 19.555381 28.41312 0 14.20349-5.429663 22.945595-19.555381 22.945595l-64.088644 0c-71.694879 0-102.110609-44.800345-102.110609-103.804181l0-584.588225c0-63.376423 38.018895-108.176768 107.541295-108.176768l551.83117 0c69.527516 0 107.546412 37.153178 107.546412 108.176768L895.459439 665.914718C895.459439 724.918553 859.611999 769.718899 793.346783 769.718899L793.346783 769.718899zM294.739814 538.067958c0-14.207583 11.95324-26.226315 26.069749-26.226315l383.461485 0c14.119579 0 26.070772 12.018731 26.070772 26.226315 0 14.204513-11.951193 26.226315-26.070772 26.226315L320.809563 564.294272C306.693054 564.294272 294.739814 552.272471 294.739814 538.067958L294.739814 538.067958zM703.18532 422.240953 320.809563 422.240953c-14.116509 0-26.069749-12.017708-26.069749-26.226315 0-14.20349 11.95324-26.220175 26.069749-26.220175l383.461485 0c14.119579 0 26.070772 12.017708 26.070772 26.220175C729.259162 411.314089 717.306946 422.240953 703.18532 422.240953L703.18532 422.240953zM703.18532 268.177088 320.809563 268.177088c-14.116509 0-26.069749-12.022825-26.069749-26.226315 0-14.204513 11.95324-26.222221 26.069749-26.222221l383.461485 0c14.119579 0 26.070772 12.017708 26.070772 26.222221C729.259162 257.248178 717.306946 268.177088 703.18532 268.177088L703.18532 268.177088zM424.009993 705.246515l178.152493 0c20.638039 0 38.019918 20.761859 38.019918 44.803415 0 24.034393-17.379832 44.800345-39.108716 44.800345L424.009993 794.850276c-21.725814 0-39.1036-20.759813-39.1036-44.800345C384.906393 726.008374 402.284179 705.246515 424.009993 705.246515L424.009993 705.246515z"  horiz-adv-x="1024" />

    
    <glyph glyph-name="quanzi" unicode="&#59323;" d="M941.281043 430.873564C920.593885 635.487731 754.041592 805.853887 549.363979 829.162756c-200.047152 22.781866-395.149689-92.659353-469.016023-280.413528l45.288462-20.782326C187.904601 689.266565 355.301122 796.658458 528.307408 781.243373c203.221448-18.107403 365.580233-190.388165 365.580233-395.940704l0-0.072655 0-0.01228-0.01228-3.315512c-1.50119-182.809559-135.028323-347.731726-314.391387-385.303436-188.956559-39.581484-383.957789 65.12116-453.852672 245.89434l-45.352931-20.808932c81.570807-207.079312 309.844837-324.028884 525.582343-269.673929C818.177308 5.50155 963.404923 212.856132 941.281043 430.873564zM718.39472 276.329768l47.597041-17.657148c7.095605 15.127536 12.96529 30.656207 17.375739 46.557362 27.580149 99.366102 3.03308 210.279191-74.463945 289.085024-115.479081 117.420293-304.279075 118.998231-421.703461 3.52222-0.606821-0.597611-1.201361-1.189082-1.802042-1.789763-115.624391-115.624391-116.595508-303.096133-1.720178-419.913699 78.753645-80.075757 191.58441-106.170065 292.63999-78.111009 15.888875 4.41045 31.396057 10.377348 46.523593 17.472953l-17.663288 47.62774c-15.08558-7.373944-30.579459-13.164834-46.590108-17.300015-83.157955-21.473057-175.043688-0.352017-239.473093 65.164139-95.27697 96.878444-94.63945 253.851569 2.936889 351.412558 97.694019 96.077196 255.338433 94.761224 351.415628-2.932796 63.186088-64.25135 83.23368-154.713664 62.188364-236.537228C731.536019 306.910251 725.742059 291.403069 718.39472 276.329768zM433.806103 461.81118c12.837376 10.504238 28.095895 18.006096 45.028543 21.049409l-21.021779 45.813419c-16.338107-4.38589-31.751145-10.993378-45.37442-20.287045-38.992059-26.599821-64.818261-71.148433-65.239863-121.918747-0.688685-82.34238 65.506946-149.650345 147.846256-150.33596 0.427742-0.00614 0.846274-0.00614 1.274016-0.00614 81.757049 0 148.382469 65.937758 149.065014 147.852396 0.430812 51.671846-25.501814 97.378841-65.209164 124.461663-13.607926 9.282411-29.033243 15.904225-45.376467 20.287045l-21.051455-45.871747c16.623609-2.936889 31.933293-10.213619 45.073568-20.961404 2.805906-2.293229 5.763261-4.353145 8.341992-6.973832 18.615986-18.931165 28.747741-43.975561 28.526707-70.527286-0.455371-54.349839-45.030589-98.567923-100.227726-98.564853-54.80521 0.458441-99.023294 45.419446-98.564853 100.227726C397.150252 416.664957 411.694503 443.71708 433.806103 461.81118z"  horiz-adv-x="1024" />

    
    <glyph glyph-name="jiaoyizonglan" unicode="&#59339;" d="M984.550523 383.674589 545.79878 791.459039c-10.150174 9.431813-23.035646 14.148231-35.919071 14.148231-12.886495 0-25.771967-4.716418-35.922141-14.148231L35.20685 383.674589l77.470419 0 25.263383 23.479761 0-445.412442 17.028838 0 35.712363 0L825.228911-38.258093l51.91744 0 0.823761 0L877.970112 410.730805l29.109991-27.056216L984.550523 383.674589zM825.228911 14.484132 190.681854 14.484132 190.681854 456.17174l319.211159 296.673863 0-0.019443L825.228911 459.748195 825.228911 14.484132zM326.07038 278.191162l52.741201 0 0-210.965829-52.741201 0 0 210.965829ZM484.295008 225.449961l52.741201 0 0-158.224628-52.741201 0 0 158.224628ZM642.519636 330.933387l52.741201 0 0-263.708054-52.741201 0 0 263.708054ZM311.433008 405.61632 340.688309 361.73388 474.060923 450.657142 526.803147 345.17474 709.904349 467.216283 680.649048 511.098723 547.249829 422.175461 494.508627 527.657864Z"  horiz-adv-x="1024" />

    
    </font>
</defs>
</svg>
